<mxfile host="app.diagrams.net" agent="Mozilla/5.0 (Windows NT 10.0; Win64; x64) AppleWebKit/537.36 (KHTML, like Gecko) Chrome/131.0.0.0 Safari/537.36" version="24.9.3">
  <diagram name="PÃ¡gina-1" id="whxxALJ7-aOeddMnJ1ie">
    <mxGraphModel dx="1434" dy="780" grid="1" gridSize="10" guides="1" tooltips="1" connect="1" arrows="1" fold="1" page="1" pageScale="1" pageWidth="827" pageHeight="1169" math="0" shadow="0">
      <root>
        <mxCell id="0" />
        <mxCell id="1" parent="0" />
        <mxCell id="kdkeD3lF6fITX8PaDC-N-2" value="" style="shape=image;verticalLabelPosition=bottom;labelBackgroundColor=default;verticalAlign=top;aspect=fixed;imageAspect=0;image=data:image/png,iVBORw0KGgoAAAANSUhEUgAAAm8AAAIQCAYAAADXQomcAAAABGdBTUEAALGPC/xhBQAAACBjSFJNAAB6JgAAgIQAAPoAAACA6AAAdTAAAOpgAAA6mAAAF3CculE8AAABWWlUWHRYTUw6Y29tLmFkb2JlLnhtcAAAAAAAPHg6eG1wbWV0YSB4bWxuczp4PSJhZG9iZTpuczptZXRhLyIgeDp4bXB0az0iWE1QIENvcmUgNS40LjAiPgogICA8cmRmOlJERiB4bWxuczpyZGY9Imh0dHA6Ly93d3cudzMub3JnLzE5OTkvMDIvMjItcmRmLXN5bnRheC1ucyMiPgogICAgICA8cmRmOkRlc2NyaXB0aW9uIHJkZjphYm91dD0iIgogICAgICAgICAgICB4bWxuczp0aWZmPSJodHRwOi8vbnMuYWRvYmUuY29tL3RpZmYvMS4wLyI+CiAgICAgICAgIDx0aWZmOk9yaWVudGF0aW9uPjE8L3RpZmY6T3JpZW50YXRpb24+CiAgICAgIDwvcmRmOkRlc2NyaXB0aW9uPgogICA8L3JkZjpSREY+CjwveDp4bXBtZXRhPgpMwidZAABAAElEQVR4Aey9CWBU1d3+/4UGSNgjBgQUZAdrooJQkMWwClITRJFfBeqCBfRVIGhlsdKKa2gFghYoloKvoEUQiRugBhBEqDR5JVESgfwRMKEkQiwJJJDo/Z/nJDNMQpaZySz3zjxHL3c79yyf78zcJ2f71jFUEAYS8DOBOnXqyJ49e2T37t1+LgmzJ4HgJoDvYmXB8brjMeI6njsee+pexXRqOvdHGarLs2J5K8at6b5jfMfjmp6r6b5jWo7HeA6h4jXHc8fjinEr3qvpvmN8x2M8h+B4zfG44r2azmvzbG3Trvh8bcpyyy23SB2KNyBl8DcBfJBPnDihN1tZKn64cd3xmuNxxXs1nVd8tmL8ivc9eV4xrZryrul+xfRqc17x2ZryNvv9ivUJtHNf8EceDCRAAuYhgN8xijfz2COoS4IPIxuBg/ojwMqTAAmQAAk4QQDvy7pOxGMUEiABEiABEiABEiABkxCgeDOJIVgMEiABEiABEiABEnCGAMWbM5QYhwRIgARIgARIgARMQoDizSSGYDFIgARIgARIgARIwBkCFG/OUGIcEiABEiABEiABEjAJAYo3kxiCxSABEiABEiABEiABZwhQvDlDiXFIgARIgARIgARIwCQEKN5MYggWgwRIgARIgARIgAScIUDx5gwlxiEBEiABEiABEiABkxCgeDOJIVgMEiABEiABEiABEnCGAMWbM5QYhwRIgARIgARIgARMQoDizSSGYDFIgARIgARIgARIwBkCFG/OUGIcEiABEiABEiABEjAJAYo3kxiCxSABEiABEiABEiABZwhQvDlDiXFIgARIgARIgARIwCQEKN5MYggWgwRIgARIgARIgAScIUDx5gwlxiEBEiABEiABEiABkxCgeDOJIVgMEiABEiABEiABEnCGAMWbM5QYhwRIgARIgARIgARMQoDizSSGYDFIgARIgARIgARIwBkCFG/OUGIcEiABEiABEiABEjAJAYo3kxiCxSABEiABEiABEiABZwhQvDlDiXFIgARIgARIgARIwCQEKN5MYggWgwRIgARIgARIgAScIRDiTCTGIQESIAGzEjAMQ3JzcyUrK0tv2dnZcurUKSkoKJBz587J+fPn9R7HVZ0XFRVJaGioNGzYUBo1amTfqjpv3LixtGrVStq0aSNt27bVW0REhNSpU8esmFguEiCBACJQR/3wGQFUH1bFogTw0uNH0aLG81GxIcgOHTokhw8fLrfPzMzUYgsiyiamWrduLRBYVQkxR1GGYwg3CDhHoVfVMQQghOHJkyftYhHCEfE7duwoXbt2lS5dupTbQ+gxkAAJkIAnCOB9SfHmCZJMo9YEKN5qjTCgEjh9+rTs379fvvzyS73h+Oeff5Zu3bppYeQojjp37qxFmr8BQNQdOXKknLiE0Pz222+lbt260rt3b+nTp4/ecNyiRQt/F5n5kwAJWJAAxZsFjRaoRaZ4C1TLOlevo0ePyu7du+Xzzz/Xe7Rq9ezZs5zYueaaa5xLzISxTpw4UU6MpqSkCFoHBw4cKAMGDND7Dh06mLDkLBIJkIDZCFC8mc0iQVweirfgMn5eXp5s375dPv74Y71duHBBCxiIGWyRkZG6tSpQqaAVMS0tTQtViFZsDRo0kBEjRuhtyJAhEh4eHqjVZ71IgARqQYDirRbw+KhnCVC8eZanGVPDRILNmzfLpk2bdCtU//795bbbbtNipUePHmYssk/LlJ6eroXstm3bZM+ePbqbdezYsTJmzBg9ls+nhWFmJEACpiVA8WZa0wRfwSjeAtPmFy9elMTERFm1apUeuzZ69Gi56667tGgLCwsLzEp7oFaFhYUCEffOO+/Ihx9+qLuPJ0+eLLGxsVK/fn0P5MAkSIAErEqA4s2qlgvAclO8BZZR0S26YsUKeeWVV/QEgylTpmjRhlmdDK4RwCxYiLiVK1fqyRCPPfaYTJs2jd2qrmFkbBIIGAJ4X3KR3oAxJytCAv4ngK7RJ554QjADFLMst2zZIp999plMmDBBL8fh/xJarwQQvOAHjuAJruALzuDNQAIkEHwEKN6Cz+asMQl4nEBOTo7MmjVLoqKi9JIeqampsmbNGrnhhhs8nlcwJwie4Aq+mPQA3uAO/gwkQALBQ4DiLXhszZqSgMcJoEvvxRdflOuvv14vsnzw4EFZtGiR9jjg8cyYoJ0AFiQGZ/DG4tbg/8ILL+iFhu2ReEACJBCwBCjeAta0rBgJeJcAlvmAaPjqq6/0ZITFixdLy5YtvZspUy9HALzBHYsZHzhwQNsDdmEgARIIbAL0sBDY9rVM7ThhwTKm0q6h4uLiZMeOHXpSwrBhw6xT+AAv6aeffqonMwwePFiLOrgIYyABEggsApywEFj2ZG1IwOsEMjIy9PpjyAgtPRRuXkfuUgawB+yCABdcsBcDCZBA4BFgt2ng2ZQ1IgGvENi1a5dER0fLnDlz5LXXXjOFP1GvVNTiiTZq1EjbB3aCvWA3BhIggcAiwG7TwLKnZWvDblNzmw5dpOPHj5f169cLuuQYrEGAdrOGnVhKEnCFAN6XFG+uEGNcrxGgePMa2lonjG44uLGCcLv11ltrnR4T8C0BrA8H4Q2PDVy6xbfsmRsJeIMAx7x5gyrTJIEAIvDDDz9o35rLli2jcLOoXSG4YT/4SIU9GUiABKxPgC1v1rdhQNSALW/mNOOdd94pcBqPNcQYrE1g3rx5kp6eLu+++661K8LSk0CQE2DLW5B/AFh9EqiOwObNmyUzM1OeeeaZ6qLxnkUIwI6wJ+zKQAIkYG0CbHmztv0CpvRseTOXKeF6KTIyUpYsWSLDhw83V+FYGrcJfPLJJzJz5kxJS0uTunW52IDbIPkgCfiRAFve/AifWZOAmQkkJSVpR/I+E25FaTIJM6gqbFGTnpXd2UVuoypIWajSXCh51aRQkpcpu/dlSkk1cQLlFuwJR/ewLwMJkIB1CfBPL+vajiUnAa8R2Lhxo0ycONFr6V+ecLGcVRdnbtgrR46k67FZ6clJ8usD82XQyJVScPkDTl0J7RCjhEqMNKku9vfvyKB+7wSFeAMG2BX2ZSABErAuAYo369qOJScBrxH44osv9AKvXsugkoQh3jp0u1E6deou3burrecQiVs4UyTtG/leN76VSMqbz0qUbp2LkrgV2+2iriQ3RZ6dNFi33E1dukaWzouTjRkFUnLmkLy/55Dg8ZLcffJsbFRZ616sbEzJlYKMN2V41Gx1d7aMmvqm/JC5USbFrZCNa+JUvFhJUaox7b2lMrisRTAqdp7syy5toyuqJK5jtSrLr/R+1fVwfN5bx1i4F/ZlIAESsDABg4EETEBAfYVMUAoWwUZArdJvnD171nbq/X1hshGjPgMLdh0zigvzjfz8fONMTrqxfKIYErPayFclOLJhioHPSULiXiM5abk+jlmequ4cM+aq6xIdb+xK3mUsiFHHiJd8xshPjlfHCcYZo9BYh+sTlxvpx44YiQui1fVIIzk3y9iSgHQnGonJx4y81NJ0RWKMhHVJRnbmOp3WzHW7jGNHko2EsvIUqlzzK8TNKXbEVEV+6sGq6+H4vPeOYVfYl4EESMCaBPD7FqL+YSABEiABTeCnn36SL7/8Us6dOye+dmreVJVg/qD2Mr+CLeL3xkpjNWrtHwtWSnRCskyP6ali9JXk5Vuk17Id8n3/+vKiRMquTU/KwHCRgeuTZXtYr9JU6oXqfT3VKXr2qDrsp87D2krM05skdfj3cnXzNnLdiF8qHVdfRvRsJyVpiB4pSWcSZYhKqyQvQxIT98qQmL4SWpQn10dGi6w9K4UqVj1EtcctkeyMNEkrxrV60qHH1ZXnF5Inb1RRj7xpkaKy9HqAXWFfBhIgAesSYLepdW3HkpOARwicPHlS1qxZI7/+9a+lYcOGcsstt+h9QYG7I83cKxa6TRdsSZczZ3IkJydHso7slbmRqkPzr1ukqOBbSVLCaueMXmXdnnWk18PvibSoL1J8UWmoh+Qmm/IJ7SB3qrTKT3NoLHetXC3RKx+QHi3DVBq3yltf5YqoP19LILjSLjqMeWshzUuVmYSE1ZPsHXOlieo2rRd2hQydvVPnWXZbPWiLmy9re0RJVBS2HrIstbjy/IqqqYdKzRcBdoX/UwYSIAHrEmDLm3Vtx5KTgFsEiouLtbPyjz76SC/YCvEWEhIiNrEG8aa61tTEgSNy0003uZWHOw9BvDVrebWEhzcufTwiQn7zSLS8uOwHKQz9lVylrk7ZkC5/HXOtFKlhZ4XffSXJuc1Vq9zHSnztl1PqWmP8opV8L5hLObQ0lbJ/C+Rs84Hyvqp7cc4R+b+dG2TohKHSrn++VDctI23NLHl4SVfZdext6dcuQnK2xknbJ5VYvCyEy/T8fHmk7HqIauDLOlJJfn0PVFmPaidVXJaf+xdg1w4dOrifAJ8kARLwOwG2vPndBCwACfiOQF5enjzyyCMybNgwWbRokRw9elSKiorswq1p06YyY8YM3fq2c+dO3xXMnpPud7x0pnVSfakX0l5GTxFZueA9OVYUKo1LvpPFPfrJqLXfSfNruqr4a+XVt/dJgerafO/F6aLa5CqEU7KwR2eZ8PdUCW/TXQYN7686PMuCzvI/8n3epbY6mzwrvghJ2ULat4mQkux98syoJTjV3aa2x21xQ1V3JLoksYWGVJHfL9pVWQ9f/SUNu0KgM5AACViYgDWH67HUgUZAfYUCrUqmro/ycWksXrzYaN++vdGgQQM9KB82UMLDUGLO+Pjjj42ePXv6rg6FqXrCQkIypiZcCllJC3TZEo+pkf75qYbqRrWXVaIXGOmYOaBC1q7lhhJjpfciI/VeT1hITTAkMkFPeEjfMPfSsypu5JR1aiKDYRQe2VB2Pd44oSchxBipZekWHkk0om3pqv3MuaWTJiITkssmLFyKqwvi8E9V+VVXD4fHvXYIu8K+DCRAAtYkgN9qelhQFBj8T4AeFnxvA3Sfvfjii3rZiMOHD+uxZA899JAsX75czOthoUTycnOkJKSpRNi6V4uOy3ubvpIbx8ZIO8xPKNgtUU0GyXNZxRLTpnx7VklBnuScVdMN6jWVNhFl3bNAX1KkxsiFqBaz8vG1VUoKJDenUMKuiJDGKv0SNWasJBSta/putf9UmZ8aYXdZPapNyTM36WHBMxyZCgn4k4BezBy605+FYN4kAAIUb779HHz11Vfa2XybNm30em733XefYKbp3r17tVsslAY+MOfPny/JyclSr96lIfq+LakTuZVkyKR6PWRt9ExZ/btukjThYVkbs1zOJE7zyexNJ0poiigY69irVy9ZsGCBjBkzxhRlYiFIgARcJ0Dx5jozPuElAhRvXgJbSbKff/65Fm6q+0zmzp0r9evX19tVV10lmLzgGO68807p0aOHju943WzHRbkZ8sE770nK8ZPSvOsd8rv7h1C4VTDSvHnztOeKd999t8IdnpIACViJAN6XTjT8W6lKLCsJkEB1BLZu3aqF2O233y5z5syxR4Vwmzx5sv3cdvDaa69J79695eabb5axY8faLptuHxrRXe6epjbTlcwcBdq0aZO89dZbsn//fnMUiKUgARKoFQGKt1rh48MkYB0CGzZs0GPcHnzwQXn00UfLFXzhwoUSE6N8HFQIV155pe4+ve2226RFixZy6623VojBU7MT+Oyzz/QM423btgnsyUACJGB9ApywYH0bBkQN2G3qXTOuXr1aXnrpJd1Nev/991+WGYa+wgZVhR07dsj48eNl/fr1Mnjw4Kqi8brJCNBuJjMIi0MCHiCA32qu8+YBkEyCBMxM4JVXXpFXX31Vnn/+ealMuKHs1Qk33Idg27hxo/zmN7+R119/HZcYTE4AdoK9YDcKbpMbi8UjARcJsOXNRWCM7h0CbHnzDlcsBYJxbpiYMHLkyFpnkpGRIZjEMGDAAFmyZAndLNWaqOcTgN/SmTNnCiamYHJC9+7dPZ8JUyQBEvAbAba8+Q09MyYB7xKAq6unnnpKv8BfeOEFjwg3lBhCwDbo/YYbbpBPP/3UuxVh6i4RgD1gFwTYicLNJXyMTAKWIcCWN8uYKrALypY3z9n3P//5j56YgD2Wh7C9zD2XQ2lKapV+PRAea4fFx8fLtdde6+ksmJ6TBL777juZPXu2XpNv2bJlMmLECCefZDQSIAGrEWDLm9UsxvKSQA0E4DUBLW5oeUOLm7eEG4oBgfD111/rPPr06SNxcXGSk5NTQwl525MEwBvcwf/GG2/U9qBw8yRhpkUC5iTACQvmtAtLRQIuE4DXBLS0NWnSRAu3Tp06uZyGqw+EhobqPCHi8NfgddddJ7NmzZKsrCxXk2J8FwiALziDN7iDP8Y1wh4MJEACgU+A4i3wbcwaBgEBDE6HcOvataueVdqqVSuf1rply5ayaNEiSU1Nlbp160pUVJSe2XrgwAGfliPQMwNPzBgGX3AGb3AHfwYSIIHgIUDxFjy2Zk0DlABmk0K4DRqknLE/95xfZ4DCV+pf/vIXQfdtt27dZNSoUXph33Xr1klRUVGAWsC71QI38MMCyeAJruALzuDNQAIkEHwEOGEh+GxuyhpzwoJ7ZqnOa4J7KXr2qYsXL0piYqKsWrVKvvzySxk9erTcddddAo8NYWFhns0sgFIrLCwUeER455135MMPP9Rj2uC+LDY2VvuhDaCqsiokQAIuEsD7kuLNRWiM7h0CFG+uc63Ja4LrKXr3iezsbO1qC342sYxF//79tYjDAPsePXp4N3MLpJ6eni6YwQvRtmfPHu1TFv5kx4wZwxY2C9iPRSQBXxGgePMVaeZTIwGKtxoRlYsArwlr1qzRg9Tvvtt67tjz8vJk+/btWqxAsFy4cEEGDhxo3yIjI/WYrnKVDqCTn3/+WdLS0mT37t32rUGDBnoGL8TskCFDJDw8PIBqzKqQAAl4igDFm6dIMp1aE6B4cx6hp70mOJ+z92IePXpUixhMvICgOXnypPTs2VN3F2IZjN69e8s111zjvQJ4OeUTJ07o1kZ0HWNLSUmR1q1ba7EKbxUQrh06dPByKZg8CZBAIBCgeAsEKwZIHSjeajYk1m6DcLMtCYJux0ANp0+fLid20M2K1ioM1u/SpYveMLMWx507d/brJA2bDeCWChMJDh8+LIcOHdJ7HH/77be6FRECFELUJkZbtGhhe5R7EiABEnCaAMWb06gY0dsEKN6qJ+wrrwnVl8K/d0+dOmUXRTZxhH1mZqYWb23bttVjw7BHq1bjxo319UaNGul9w4YN7ecVj7E+GmZ1nj9/XiDCsFV1jHsQ0mgdxHprGMuHPeJ37NhRL9cCUWkTl9j7eukW/1qKuZMACXiTAMWbN+kybZcIULxVjQutOWhxQ8CSIL5YfLfq0pjvjmEYkpubqwWUTUxB6EFgVRRhVZ1DuEHAOYo6iL6qziEMIciwVAfEIraIiAi9YK75CLFEJEACgUSA4i2QrGnxulC8VW5AdJHCzRVEAlbQZwtO5Zx4lQRIgASChQDelyHBUlnWkwSsRgCD9yHcMHAfwg0tQQwkQAIkQAIkQPHGzwAJmJAAvCZAuN1+++0yZ84cE5aQRSIBEiABEvAXAYo3f5FnviRQBQGze02ooti8TAIkQAIk4CMCFG8+As1sSMAZAlbzmuBMnRiHBEiABEjAswQo3jzLk6mRgNsEbF4Tnn/+ebGi1wS3K84HSYAESIAEXCJA8eYSLkYmAe8QsHlNgHAbOXKkdzJhqiRAAiRAAgFBgOItIMzISliVgKPXBExQCGSvCVa1EctNAiRAAmYjQPFmNouwPEFDwNFrAoTbDTfcEDR1Z0VJgARIgATcJ0Dx5j47PkkCbhNw9JoA4UavCW6j5IMkQAIkEHQE6gZdjVlhEvAzAZtj+SZNmui13Cjc/GwQZk8CJEACFiPAljeLGYzFtTYBek2wtv1YehIgARIwAwGKNzNYgWUICgL0mhAUZmYlSYAESMDrBCjevI6YGZCACL0m8FNAAiRAAiTgKQIUb54iyXRIoAoC9JpQBRheJgESIAEScIsAxZtb2PgQCThHgF4TnOPEWCRAAiRAAs4ToHhznhVjkoBLBOg1wSVcjEwCJEACJOAkAYo3J0ExGgk4S4BeE5wlxXgkQAIkQALuEKB4c4canyGBKgjQa0IVYHiZBEiABEjAYwQo3jyGkgkFOwF6TfDPJ8AwDMnNzZWsrCy9ZWdny6lTpwQtoOfOnZPz58/rPY6rOi8qKpLQ0FBp2LChNGrUyL5Vdd64cWNp1aqVtGnTRtq2bau3iIgIqVOnjn8gMFcSIIGgIlBH/fAZQVVjVtaUBPDSs/JHEV4T4OYKL/O5c+fqF7spQVu4UBBkhw4dksOHD5fbZ2ZmarEFEWUTU61btxYIrKqEmKMowzGEGwSco9Cr6hgCEMLw5MmTdrEI4Yj4HTt2lK5du0qXLl3K7SH0GEiABEjAEwTwvqR48wRJplFrAlYWb/SaUGvzX5bA6dOnZf/+/fLll1/qDcc///yzdOvWTQsjR3HUuXNnLdIuS8THFyDq0PrqKC5x/O2330rdunWld+/e0qdPH73huEWLFj4uIbMjARIIBAIUb4FgxQCpg1XFG70meOYDePToUdm9e7dACGOPVq2ePXuWEzvXXHONZzLzQyonTpwoJ0ZTUlIErYMDBw6UAQMG6H2HDh38UDJmSQIkYDUCFG9Ws1gAl9eK4o1eE9z/QObl5cn27dvl448/1tuFCxe0gIGYwRYZGalbq9zPwdxPohUxLS1NC1WIVWwNGjSQESNG6G3IkCESHh5u7kqwdCRAAn4hQPHmF+zMtDICVhNv9JpQmRWrv4aJBJs3b5ZNmzbpVqj+/fvLbbfdpsVKjx49qn84CO6mp6drIbtt2zbZs2eP7mYdO3asjBkzRo/lCwIErCIJkIATBCjenIDEKL4hYCXxZvOagIkJd999t28AWTSXixcvSmJioqxatUqPXRs9erTcddddWrSFhYVZtFbeL3ZhYaFAxL3zzjvy4Ycf6u7jyZMnS2xsrNSvX9/7BWAOJEACpiVA8WZa0wRfwawi3mxeEyDcRo4cGXyGcrLG6BZdsWKFQOhicsGUKVO0aMOsTgbXCGAWLETcypUr9WSIxx57TKZNm8ZuVdcwMjYJBAwBvC/rBkxtWBES8CIBLA3x1FNP6QH1WBKEwq1y2OgafeKJJwQzQDHLcsuWLfLZZ5/JhAkT9HIclT/Fq9URgOAFP3AET3AFX3AGbwYSIIHgI0DxFnw2Z41dJACvCRBuWAYCwg1jtRjKE8jJyZFZs2ZJVFSUXtIjNTVV1qxZIzfccEP5iDyrFQHwBFfwxaQH8AZ38GcgARIIHgIUb8Fja9bUDQIQbBBuaHmDcKMYKQ8RXXroSr7++uv1IssHDx6URYsWaY8D5WPyzJMEsCAxOIM3FrcGf3w+YQ8GEiCBwCdA8Rb4NmYN3SQArwkQbk2aNNEvxk6dOrmZUmA+hmU+IBrACYvpLl68WFq2bBmYlTVprcAb3MH/wIED2h6wCwMJkEBgE6CHhcC2r2VqZ7YJC/SaUPVHB62QcXFxsmPHDj0pYdiwYVVH5h2fEvj000/1ZIbBgwdrUQcXYQwkQAKBRYATFgLLnqyNhwjAa8K8efNk0KBB8txzz5nC9ZKHqlbrZDIyMvT6Y0gILT0UbrVG6tEEYA/YBQEuuGAvBhIggcAjwG7TwLMpa1QLAhs3btTC7Z577pE5c+bUIqXAe3TXrl0SHR2tubz22msUtSY1caNGjQT2wecX9oLdGEiABAKLALtNA8uelq2NGbpN6TWh6o8PukjHjx8v69evF3TJMViDAO1mDTuxlCTgCgG8LyneXCHGuF4j4G/xRq8JVZsW3XBwYwXhduutt1YdkXdMSQDrw0F4w2MDZ0ub0kQsFAm4RIDizSVcjOxNAv4Ub/SaULVlf/jhBz126uWXXxb42WSwJgH4k3388ce1T9krr7zSmpVgqUmABDQBijd+EExDwB/iDbMmIdyw1AUmKHDx3cs/DnfeeafAaTzWEGOwNgF8xtPT0+Xdd9+1dkVYehIIcgJ4X3LCQpB/CIK1+vSaULPlN2/eLJmZmfLMM8/UHJkxTE8AdoQ9YVcGEiABaxPgmDdr2y9gSu/Lljd4TUCLGwJaI7j47uUfI7heioyMlCVLlsjw4cMvj+CHK0UFRRLSOFRC/JB3oGT5ySefyMyZMyUtLU3q1uXf7oFiV9YjuAiw5S247M3aKgL0muDcxyApKUk7kveJcCtKkUmYPVXJtnBfnipwnqyZGiVhTcJkkT6vog4leZKyO0XySqq4X8vLBWkrVBknSZq7HqhUPQerOi5NK6hlSdx/HPaEo3vYl4EESMC6BPhHrHVtx5K7SIBeE5wHhvXuJk6c6PwDtYx5Vj0/ZXWSPNqruRQXlyV2UeTKbk1EStLl9ZVpsiApS57sG15NTkel16BeklxoSLjXftm+l3PuisPQDvLyli3S8KrQaurg/VuwK+zrE2Hu/eowBxIISgJsNw9Kswdfpek1wTWbf/HFF3qBV9eecj82xNtNfQeprtqe0rNn2da3p7QLL5KNv58uO9X9+TMflvcyVbNX0XFZExdb2lI3eJK8uS9bCbxMeXZ4L12AXn3iJO2HDJmn7r13vKyZrAjnsfJmRmmrV9p7S3UrGFr7omLnyb7sUkWWsXGeTF24QhZOqiOxS1N0ehX/qa8v5MnWpVPtrYVTl26XS+1p6t7C0ntRk56VFUvnybMbM1QZ8+Xzbbsku7BEijI3yqSpC+XNFfPK0oiVjRloZfR+wMK9sC8DCZCAhQkYDCRgAgLqK+S1UmzYsMG46aabDLWWm9fyCLSE1Sr9xtmzZ31TrcJkI0bZf+LyRGPv3r2G8ghQtqUaZ1QJjiQlGCKRRkLiLuNYfo6xPFoMiZxpJKWmGonxE9U9MTYcyzNStyQYkTreXuNMfrIRra7HJyMFFVQeOE9Q58XH1ulnZq5T6R1JNhImqvRiVhuFKlrq8hh9L3LiAiNxb5Z+1PZPfupydS/aSM43jL0J0eo40li3N91I37VaPxOdkKyj7o0vvbd6V7KxJaG0fPqeQ5lK01L5Ri8wkvbuMuJj1HFkgqGS9nqAXWFfBhIgAWsSwG+e1zoXVOIMJOB3AvSaUN4EWHH/1VdflZMnT0q3bt2kXr16EhISYt+jJeqnn36Sc+fOiS+dmjdVxVz7cKysLVfcGEnOT5SegwZLtLwrA24fKC2PrJGHd4psOPKiDOmkuh8j42XB7LXyxkcnJPGhwdIC8Ub0lXApbTWrtIOySU9JTNwrQ2L6SmhRnlwfGa0yPyuFOm/VBhi9XL54Y5pU6dK9KE1enLFTFuzKkXv7RqinusuRdUnS+aXPpWBKPfnr7J0yd0uW3D+wjcjANyTxm7XyB6Rd9mt7qUyRsmvT0zJQ9QTf8txymR21RQ4VTJeeVWasC1jrf2BX2JeBBEjAugQo3qxrO5a8BgI2rwnPP/+83H333TXEDo7bcG2FFfexaKtq5aq00i1bttR+S7EOXpMmasyZDwK6TVWrmEzvWcmYtqLSQXAXVQ9oSXFpN+i4zmHlShVzUcUpG4t2EftKftkgEBFCwupJ9o650iR2pz7X/0SPl3rqoFiNs4sc1adq4YbIJbZBeZcyaduzv0ja/8mpogHyvYrSu6UtN5GrO0Wqrl486BhURvKQ3FRW3dKig4L3A+wK/6cMJEAC1iXAMW/WtR1LXg0BLAWCQdlYXJbCrTyoP/3pT5KSkiJXXXWV1K9fOoILMdDqFhERId9884106NBBsKSKr4KWLfXKC7JK84a6kkhJyiqU4vx8KSzMl9RdW+SPY7rao9eHpioTcvVVy6It2KRR2ppZ8vCSrrLrWI4UG4ZkbZkpchrpOh+QVrPml9LO+nqPKtYvpZVNz9WzHYic+zHN+YR9EBN2hX0ZSIAErEuA4s26tmPJKyGAVoWnnnpKbDNL4ZOT4XICp06d0rMNf/GLX9hvhoWFyfvvvy9wn3TLLbfIzp077fe8fYB2qm/27JQ0JSr37dunttJ9RvalaQAoQ+OuAyRG0iRh434pUd1/+Qc3StSgUfJptq3lbadkHM4VCW0mkHNbdvyfavTKk41z75edSECF4ouQXi2kfZsIKcneJ8+MWoLTsm5THaXafy427iDjo0Vm/OEfgvkQJbkp8uq4tRI57ibV1Wy7t1Iy1bp0x3cvlUFqScEOlxriqk+72rueuQm7wr4MJEAC1iVw6c9D69aBJScBTQBeE9Dihj1a3OiE+/IPBsTZO++8IwcPHpS77rpLkpOT9TG60cDsV7/6lX4IrZVz5syRuLi4yxPxwhVom5UPj5KVFdJWA/1lxxSHi417yt/3LpeW/QZJ2IzS6xMTkmQWlhApOSP9VA/lhKih0jE/VeI2zJUe48riqRmWCFc2DJPrRsdJ9IxYaV+vdKHmmXNVBi/OkKFLB8g6Hau6f5pKo5BweWjdLtnTdpC0txUiJl6O/H6gfnDaplTJHRslnZuggNFKbIqc1Q179eRqx6RVWcuHpqJbDctf9PjZ2rVr5aWXXvJ4ukyQBEjAdwToYcF3rJlTNQTQZafm/VQTo/pb9JpQPR+McYNo++6777Rog3Br3769FrjoJr3jjjvK+bw0o4eFcjUsKpDsM4US1jRcwhs7/g2qluFQrWGhoaXXivLyJF+NZosIrzALoKRAcnPU81dEiHLaICWqxbYktLGUPVYuq6pPiiQ3+4wUS5i0bBNeNsyuSPZt3CTnbxqlJlRgQFuJbI2rJ0+2TpbUJ3tWnZSP7tDDgo9AMxsS8CIBvC8p3rwImEk7T6A24g1eE9Di1rp1a5k7d660atXK+YwDOGZJSYkWbBj7l5ubq0UbWtTAyRbAHSFfjR+rOLsUPjDnz5+vW+cwK5XBOQJb4+oIemIXrF4nzfa+JDNWtlBj9D6RIW0cRaZzaXkyVrFa/bhXr16yYMECGTNmjCeTZlokQAI+JEDx5kPYzKp6Au6KN9vYNizsCuHGWXRq7FZhoV20YUkItLJBtGEsW8UwaNAg7b8U/CoLd955p/To0UN3qVZ2n9cqIaDcdO37KFE+2XdICsPayd2T75eebS4tEFLJEz65BD++6enp5VpYfZIxMyEBEvAoAYo3j+JkYrUh4I54g9cEjNO6/fbb9fis2uQfCM+qxVf1DFt0j6ILGoINwq1Zs2ZVVg8OyuGAvqrwww8/SO/eveXll1+WsWPHVhWN101OAN3mjz/+uOzfv79SEW/y4rN4JEACDgQo3hxg8NC/BFwVb7ZlQB588EF59NFH/Vt4P+cOgQXBhq1hw4b2MW049kQ4cOCAYNbu+vXr5dZbb/VEkkzDhwSwrt/48eNl27ZtnMTjQ+7MigS8RYDizVtkma7LBFwRb/SaUIoXXhJsog1domhlw+aN8WnwzAABAAGHhX4ZrEGAdrOGnVhKEnCFAMWbK7QY16sEnBVvNq8JGN+GbsFgDMePH7ePacOMUZto8zYL5XNU7rnnHomPj5f77rvP29kx/VoSeP3112X27Nny9ttvC8Y2MpAACQQGAYq3wLBjQNTCGfGGGaUY5wbhNnLkyICotyuVyMzMtIs2TCKAeMUSH74MGRkZgkkMAwYM0BMdOEHEl/SdywuTVGbOnKkXqn733Xele/fuzj3IWCRAApYggPclPSxYwlTBXciKXhOCTbhBMD333HNarB06dEgv9YBWFV8LN3wKIQQw6B0BiyB/+umn+pj/mIMA7GFbnBp2onAzh11YChLwNAGu8+ZpokzPLQJVtbw5ek3AUge2F5NbmVjsodTUVPuYNnR7oXt06NChpqnFxx9/LI888oheOwxdqddee61pyhZsBcHiy+gihceMZcuWyYgRI4INAetLAkFDgC1vQWNqa1YUXhPgpxQtb8Hk7govYAjVcePGyY8//qhfxnghm0m44RMFgfD1119rQd2nTx/tSisnJ8eaHzaLlhq84cIM/G+88UZtDwo3ixqTxSYBFwiw29QFWIzqOwLwmgDh1qRJEy3cOnXq5LvM/ZQTHLL//ve/16Lt4sWLsmbNGklISDD1YPPQ0FAtNCHi8NfgddddJ7NmzZKsrCw/UQyObMEXnMEb3MEfY0FhDwYSIIHAJ0DxFvg2tlwN4TUBLU9dunSR559/PuDdXe3evVsPMP/tb38rISEhsmHDBvnLX/4i/fr1s4ztWrZsKYsWLRJ09datW1eioqLk/vvvF6wRx+A5AuAJruALzuAN7uDPQAIkEDwEOOYteGxt6praxrwFk9eE7du3a48IWETV5g0BL+VACHnKIfyKFSsES7tAhE+ZMkWP2WPLkOvWLSoq0mMfV65cKYcPH5bHHntMpk2bJuHhcHzPQAIkEGwE8L6keAs2q5u0vvgwosUJY9sC3WsCBCoW1/33v/9tX6MNS38EYkD3b2JioqxatUq+/PJLGT16tK4zPDaEhYUFYpU9Uif4p4VHBHxOPvzwQz2mbfLkyRIbGyv169f3SB5MhARIwJoEKN6sabeALDU+jF27dtXjdtAtFIjh/fff1y/jgwcP2kVb586dA7GqldYpOztbNm/eLPCziWUs+vfvr91uYYB9oIrXSkFUcRFO4zGDF6Jtz5492qcs/MmOGTNG2rRpU8VTvEwCJBBsBCjegs3iJq0vutamT5+uW94C0WsCxApaULCcg80bAjwjBHNAtyq6jSFWsF24cEEGDhxo3yIjI/WYrkBl9PPPP0taWppgvKNta9CggZ7BCzE7ZMgQdosGqvFZLxKoJQGKt1oC5OO1J2DzmgDXS4Zh1D5Bk6Tw008/6fFsEG1YzgGiDcK0devWJimhuYpx9OhRLWIwWQViBn5be/bsqbsLsQxG79695ZprrjFXoV0ozYkTJ3RrI7qOsaWkpOjPAgQrvFVg36FDBxdSZFQSIIFgJUDxFqyWN0G9sXYbhBuWBMHMUrzAAkG8YawSBNvGjRsFbopsExHgOJ7BeQKnT58uJ3bQzYrWqm7duukJEJgEgW527NH1bAY3XbA31ibEpAJ4wsAe27fffqtbESFAIURtYrRFixbOA2FMEiABEigjQPHGj4JfCFTmNQEfRiuLt7Nnz9pb2gDV1j3arFkzvzAOxExPnTplF0U2cYQ9fL5CvLVt21aPDcMeLZyNGzfW13EPW8OGDe3nFY8xCxazOs+fP69FN4RYVce4hz8+0DqI9dYwlg97xO/YsaNdVNrEJfatWrUKRJOwTiRAAn4gQPHmB+jBniVaJtDihoAWN9viu1YVb2ghQisbWtsgCGyiDccMviEA0Z+bm6sFlE1MQehBYFUUYVWdQ7hBwDmKuoqCz/EcwhCCDBMJIBaxRURE6AVzfVNr5kICJBCsBCjegtXyfqo3ukgh3NAqgtXgHVsjrCbe0HpoE23oErWJtnr16vmJLrMlARIgARIIBgIUb8FgZZPUEQPRsYYbBqFDuKEVwzFYRbwdP35ct7Khpa1du3Z20eZYFx6TAAmQAAmQgLcIULx5iyzTLUfAGa8JZhdvGFdlm4iANckwEeGOO+4oV0+ekAAJkAAJkIC3CVC8eZsw09ddi854TTCreMvIyLCLtptvvlm3tI0cOZKWJQESIAESIAG/EKB48wv24Ml09erV8tJLLznlNcFs4g0LqNrGtA0aNEiLtqFDhwaP8VhTEiABEiABUxKgeDOlWQKjUPCasGbNGi3cnPGaYBbxhsVTbaINLWyYiADxxkACJEACJEACZiBA8WYGKwRgGWxeEzAxwdkuRn+Lt3379tknIsCfJERbv379AtA6rBIJkAAJkICVCeB9GWLlCrDs5iLg6DUB49zgeNzsAa6YMBHho48+0oJtw4YN0qtXL7MXm+UjARIgARIIYgIUb0FsfE9W3dFrAoTbDTfc4MnkPZ4WnKJDtO3cuVOLNnSVRkVFeTwfJkgCJEACJEACniZA8eZpokGYnqPXBAg3m9cEM6LYtm2bHtMGX5kYiwfRhqU/GEiABEiABEjAKgTqKNcyhlUKy3Kaj0B1XhNcKa23x7y9//77uqXt4MGDuqUNY9rg0JyBBEiABEiABKxEgBMWrGQtE5a1Jq8JrhTZW+Jt06ZNWrR99913dtHWvn17V4rGuCRAAiRAAiRgGgIUb6YxhfUK4ozXBFdq5UnxVlJSogUbxrTl5ORo0YYuUvhUZSABEiABEiABKxPA+5Jj3qxsQT+VHePEnPGa4OviFRYW2kUbZr6iaxSiDY7jGUiABEiABEggUAhQvAWKJX1UD1e8JvioSHL27Fkt2iAqMYQTgg3CrVmzZr4qAvMhARIgARIgAZ8R4IQFn6G2fkauek1wpcbudJuePn3a7g2hYcOG9jFtOGYgARIgARIggUAkwDFvgWhVL9XJHa8JrhTFFfGGNeXQyoYxbegSRSsbtnr16rmSJeOSAAmQAAmQgOUIULxZzmS+L7Cj1wS4uxowYIBXCuGMeDt+/Lh9TFu7du3sos0rBWKiJEACJEACJGBCAhRvJjSKmYrk6DVh3rx5XvWaUJ14y8zMtIu27t27a9EWExNjJlQsCwmQAAmQAAn4hADFm08wWzMTR68JEG7e9ppQmXjLyMiwT0SAv1FMRHDW0b01qbPUJEACJEACJFA9AYq36vkE7V1PeU1wBaCjeEtLS7OLtkGDBumWtqFDh7qSHOOSAAmQAAmQQEASoHgLSLPWrlKe9JrgSknwYUxOTrZPREALGyYhQLwxkAAJkAAJkAAJlBKgeOMnoRwBT3tNKJd4NSf79u2Tfv36SYcOHWTs2LFatOGcgQRIgARIgARIoDwBiDcu0lueSdCe+cNrwu7du3X36EcffaS5v/3223LzzTcHrQ1YcRIgARIgARJwhgAX6XWGkpfi7NixQw4cOCA//vijNG/eXM/mHDx4sJdyqzpZX3tN2L59uxZtO3fu1K1smIhwww03aO8IVZeSd0igcgLwqpGbmytZWVl6y87OllOnTgmWuTl37pycP39e73Fc1XlRUZGEhoYKFnhu1KiRfavqvHHjxtKqVStp06aNtG3bVm8RERGCv4gZSIAESMCbBNht6k261aS9ZMkSWbRokf7B7927t7Ro0ULgLWD//v365TNr1iyZOXNmNSl47pY3vSZULOW2bdu0aPvyyy/toq1Hjx46Gj6MeAkzkEBVBCDIDh06JIcPHy63x1IyEFwQUTYx1bp1a4HAqkqIOYoyHEO4QcA5Cr2qjiEAIQxPnjxpF4sQjojfsWNH6dq1q3Tp0qXcHkKPgQRIgAQ8QYDizRMUXUijpKREL3dRXFwsf/rTnwTCrWKAgMM9eAtAV2ZIiPd6tr3tNcFWtw8++EDX5ZtvvrH7He3cubPttt5TvJXDEfQntj9mIPSx4Xvx888/S7du3bQwchRH+CxBpPk7QNRhiR1HcYnjb7/9VurWrau/73369BFstj/a/F1m5k8CJGA9AhRvPrbZmDFjBJ4Bli5dWmPO06dPF3gU2Lx5c41xXY3gK68JmzZt0i1t3333nW5pw+zR9u3bV1pcirdKsQTNxaNHjwrGQGK2M/Zo1erZs6cWOjaxc80111iWx4kTJ7QAtYnRlJQUQevgwIEDtdcS7DFhh4EESIAEaiJA8VYTIQ/eR1fpJ598Ih9++KHTqY4ePVqGDx/u0S5Ub3tNQOsifI5iy8nJsYs2dGdVFyjeqqMTePfy8vIEYx8//vhjvV24cEELGYgYbJGRkbq1KvBqXlojtCJiPUMIVdvWoEEDGTFihN6GDBki4eHhgVp91osESKAWBCjeagHP1UfR4gZBU1lXaVVpoasIrVVogfNE8KbXhMLCQrtoQ8seyo2JCHAc70ygeHOGkrXjYCIBWpLRIovPdv/+/eW2227TYsU29tHaNaxd6dPT07WQxdjQPXv26N8KLJ2DFvua/vipXc58mgRIwEoEKN58ZC3MKoWLqb1797qcI9Y7e+GFF6S2s1BtXhOuuuoqXRZPDaA+e/asXbShNcEm2po1a+ZSXSneXMJlmcgXL16UxMREWbVqlR67htZkfEYg2sLCwixTD18XFH8M2Sb4oLUeXceTJ0+W2NhYqV+/vq+Lw/xIgARMRADvS++NhjdRRf1dFCwH4kqLm2N58Ryer41484bXBAwoR0siJlXgJTx+/Hj9UsbMPQYSQLfoihUrBLOZMblgypQputUNszoZaiaA7xRa3LBhFiy+a6+++qrMmDFDHnvsMZk2bRq7VWvGyBgkELAEKN58YFqs44blQNwJeA7Puxs87TUBY+Yg2PAyQZfogw8+qEUbZscykAC6RrEMDtYOvOOOO2TLli16DT+ScZ8ABO+ECRP0hj/kFi9eLJhh+8ADDwiWFWKXqvts+SQJWJVAXasW3ErlxgK8aKlyJ+A5PO9OgMhCd+0999wjc+bMcScJ+zMYd4eXBsaxffHFF/Loo4/Khg0b5P/9v/+nlzWxR+RBUBLA5BQIiaioKL2kR2pqqqxZs4bCzcOfBixmDa7gi2EK4A3u4M9AAiQQPAQo3nxga/zgYoC2OwHP4XlXA1o+nnrqKcGSIxBa7gYsgLpw4UIZN26cYNzck08+KW+++aZubXM3TT4XOATQpYf1Aq+//nq9yPLBgwftC1AHTi3NVxMsSIwWTvDG4tbgj7GxsAcDCZBA4BOgeywf2diXs0094TUhIyPDPhEB621hkPmoUaO8RosTFryG1msJY5mPRx55RHr16iXx8fFy7bXXei0vJlw9AaylOHv2bElOTpZly5bpGbzVP8G7JEACViXA2aY+tJyv1nmrrdcErD1lm4iA9bbQTTp06FCvk6J48zpij2WApWDi4uIEs6gxKWHYsGEeS5sJ1Y7Ap59+qiczYIIThjnARRgDCZBAYBHA+5Ldpj6yKXyVYlA/ujGdCYiH+M76OMULFd2kmFn6/PPPy8iRI53Jxh4HK75jfBzEGmYK4q/35cuX+0S42QvBA9MTQIusbeY0Bs9TuJnLZLAH7IIAO8FeDCRAAoFHgN2mPrSpt3yb1sZrwr59++zdo1gQFN2jWFvO14Etb74m7np+u3bt0pNf0EV63333uZ4An/Apgddff113pb799tsyaNAgn+bNzEiABLxHgN2m3mNbbcroQsVgYww6xl/H6KqEOyBMTsjKytKzx5xtcXPXawJc8qB79KOPPtKCDaLt5ptvrrbc3rxJ8eZNurVPG12kWMtv/fr1tVpzsPYlYQquEKDdXKHFuCRgDQIUb362E35Y0cWB8UMYn4JZpa4sxgt/kH/961/l2LFjTntNgD9JiLadO3faRZs7s1k9jY7izdNEPZcePqPwiADhduutt3ouYabkEwKfffaZFt7w2GCG77pPKs1MSCCACVC8mcS4tREuWBT1iiuukJpWrscPN9Z9Q+seWtkwts1M/iRrw8AkZgzIYvzwww+6dfjll18WdKszWJMA/Mk+/vjj+vvvrL9ha9aUpSaBwCdA8WYSG3tTuHzwwQdatH3zzTd20YbV2c0WvMnAbHW1UnnuvPNOLfKxhhiDtQlgQlJ6erq8++671q4IS08CQU6A4s0kHwBvCBf8pY3u0aNHj+pWNrS2tW/f3iQ1vrwY3mBweS684gqBzZs3y/z58/XaYXR/5go5c8YtLi7Wa/ItWLBA+0w1ZylZKhIggZoI4H3JpUJqouTk/T/96U+i1bCC6uoeWbj6jC0+8rUFzGbFuCS4w1q6dKn07dtXt7rBfY6ZhZut/NybhwBcL2HpGXSXUriZxy61KQnsCHvCrrAvAwmQgHUJULx5yHYQUXBT486GIrjzHJ5BvoWFhbJ27Vrtwurvf/+7DBkyRPsdfeyxx+i02kP2DaRk8FnBSvzVhaSkJD2Ocvjw4dVF89K9AlkzCX8Excr23PJZZG9/Vv+hM2lFWvkbLpyV5GXK7n2ZUuLCM5dFLUqRSZX8oRa3Zl/N6ZbkScruFMmrVQEuK5FTF2BPjI+FfRlIgASsS4Dizbq204Jv69atulsU/kZ//etf65a2adOmSUREhIVrxqJ7kwDcnWFZmF/+8pcCF1f4I6BiwOSWiRMnVrzsu/OzyOo9Wf9ZpkOeRfLF6vn6/KwUO1x38fD7d2RQv3dqFlk1JIsizly3V44cSddjyZLWLZAlD/ST+Vuza3jyqPQa1EuO+kG8oWCwK+zLQAIkYF0CFG/WtZ1ugcCLF+tv4cd48uTJ0qxZMwvXiEX3BYHrrrtOC34MXsdYyC5dugjEP7rdbeGLL76Q6Oho26nP99q9eqTIyr9+Inm23PO+kjfW2k5K9wWZ22VebFTpsIOoWFm6tVTsFWVulElTF8qbK+aV3lOteBsz8qQg400ZHjVbPTxbRk19UwrUUV7GVpk6uHS4w+CpSyWtrEksY+M8mbpwhSxUrYCxS1PKZ6zOIN46RN4onTp1l+7du8uQe38vy1WZP0g9ruNWmm5Jpjw7vJe+36tPnKShAD4OsCvsy0ACJGBhAurlz+BnAurj4+cS+D97MvCtDU6cOGGEhYWhyU1vTZo0MVRrraEWkDaUqzWjUaNGxtmzZ31bKHtu+YYSQUb8htVGtCrflqxifScrcaYhkTONmTFiRCckq2v5RgLKP3G5kXrkiJG0Wt2XaGNvvrqTury0btELjKS9u4x49YxEJhj5+VnGloQp6t5EIzH5mFGck2QovWVEL9hgpKbuMuZGI168kaNST10eo9OInLjASNybZS+dPihMNmLUc/G71PXiQkMNXTCyktfptOYmqWtVpptvpG5JUPEijYTEvcaZ0qqVT9vLZ7Ar7MtAAiRgTQL43aZ7LEXB3wGTD9RHyN/F8Gv+ZHAJP1rAioqKBIswO+4djyvec+ccy8f8+OOP5VrcLpVC9KB22MX3oUCWRjWR+uuOSdM/tJf1d6ZL4v3XyprBYZL0u10ydMsgeb13suyYfp2kbf1YinuNkJ7hIrnpH0jLqL/K3vwdcv3RFdIkapnsOpMqA9W9orQVEha1RZLzE+W675dK2D31pTB1mhxeEStRD98sWcbT0kZVtOj4RglrP04SjxVLh4+GS9T68ZK/Y5pc5t4dY97CekmFhkCRmHg5sv5JOb+m6nRj2qTL4HrT5eXCHdIz1Pd08VtTt25dee6556Rly5aihLs0bdpU7yse17R+pO9LzxxJgATwuxxCDCRAApcIVCWc3BFH7oot5IWXZoMGDdzeq1Y1ad68ebXPwz8pFuFFCAkJ0bNKMR4KL/WOHTuKaoHTL/RLdHx7dLFeS4mePEUm/GGn5N19oyzaKbLk7e7yn/W2coRI8ZkDcn/LWLk0fSFG6uvbF9W/D8lNSrghlHYI64F0UoLhcmkXy641VSfzpW2d0rF0iIvw3Q9FcrVKInJUn8uFW2kU3W06NzFV4m5uJoU6gzBp0y5C/6imSdXpSsvS8XoXL/VSl6Xomx3sqlre5A9/+IPuUoZgw8vA9geU7XOLc3hnGDhwoG8KxlxIgAScJkDx5jQqRvQ2AQgnX4ok20uq4t5d0WQTXM4Ip5ry+MUvfuFV3HCTBuGGFhiUe8SIEXoZCYg2hA4dOqiB+Efkpptu8mo5qku86LxImyHjJTJtpvz5hQ6SFpkgfSKayMZSDSYlxzdLrwnzJX5LujwS3V2JrBQZHPa4QLY5G4ovfq8UWoLkpDwiYUUlElKcI1/865hERjWWE59XnwqKcZXiFNHmsnY5qS5d20yJ+n769YVdYd9169ZJv379RHWjlqsohN1vfvMbvdwQhB0DCZCA+Qj46efDfCCCvUQ//fRTuS46b4moikLJdg7+ED0QNRWFjU0UObvHpI2KabhyjlaoQA/Dhg3TXfW33HKLvPrqq5eJNFyH/1t/ijfdXta4j8yKSZMHXkyTiavjdSuYnsygDFRyvnS0f8cutngh2AAAQABJREFUV0vjkFx5b/79slNayPmzthiXW1ELO93w9R/5Pq9IrrlpiGqF+7t8kv4buTeyiexeep8MndFU0oudbG1SC99WFqpLN0K3uO2UjMO50jPS97PCYVfYNyoqSp544gkt2s+dO6erge/gM888o11pVVYvXiMBEjAHgcB/S5mDs9dKsWfPHv2StYktmxhyZ1+ZcHJF9EBcYeyMsyLLMR78LWK9umAQTl77MDiZMBzNh4eHyxtvvCG33357pU/B9+2cOXMkLi6u0vvevoiuzyK9HEi4DJk8V60a8oFMGNFZX7XlHdp9hCSoWQPjOpe2DkVPmSsTI1+UoW2XyolUNZhMzUQoH5oKWrtCmrVRl2dIjyuayxnj97Il/t8yKqqlTNCRI2V18tvSXcW71BVbPhXbGTpG66uFbysLEQOrTldCm0k/VbYJUUOlY36q9L284a6yJD12Dev8vfTSSzq9p59+Wt5++205dOiQFvNY2Pu1117TXehTpkzR32WPZcyESIAEPEaAExY8htL9hGxjTdxJ4dNPP9XizVWRVTE+hJQ/hVNtGLjDLZifyc7OltatW+sxTlVxwAr8kZGRomafin8W6q2qZBWvl0hebo6UhFwhEeFKsJUUSUFJiDQOreHvUhWvSI1OCy1rZS3Ky5UzqkXsivAIda1iHu6fV50uJqWIEkcezMyJYn7yyScyc+ZMSUtL013meAQTV/r06SNwnwVRhzFu+fn5erFv3Md1etkACQYSMAcBvC8p3kxgCwqXUvdgwT7j1gQfxXJFoG/Tcjgsf1Kdb9Pnn39eT2D429/+JmhxcwyLFy/Ws1InTChtm3S8x2MSIAHfE4BmqOv7bJkjCZCAFQiMGTNGLUDbSf74xz9aobgsYw0EYEfYE3atGNBFjoCXgmPAH1QtWrSQ1atXy9SpUyU3t4K/MsfIPCYBEvAZAd+22fusWsyIBEjAEwQw/ql3797andbYsWM9kSTT8AOBTZs2yVtvvSX79++vNHfMbobHDXSpOwaIud/+9reCCS7oXrW53bt48aLUr4+RiQwkQAL+IMBuU39Qr5Anu03ZbVrhI2GqU0xwuO2222T9+vVy6623mqpsLEzNBLBWG1zobdu2TW644YZqH0BLW8XWt8oeQPfqf//7X5k0aZIeP1lZHF4jARLwDgF8R9lt6h22TJUEAoYAXvhotRk3bpzs2LEjYOoVDBWBvWA32K8m4QYezgg3xLv++uvl66+/1uLt4MGDuMRAAiTgQwJsefMh7KqyYssbW96q+myY6fquXbvknnvukfj4eIF3BgZzE3j99ddl9uzZeimQQYMGeaWwWDOuV69efvXE4ZWKMVESMDEBaAaKNxMYqDbibcuWLXoQMdblatiwoQlq414RasPAvRz5lDsEMjIy5M4775QBAwboZUSwGj+DuQhgwV0sB/L555/Lu+++K927d/dJAT/88EP5+OOPBS7WME6SgQRIwDsE8L5kt6l32PokVdv4FIxFgnhbtWqVHofik8yZSVASgBCwDXpHNxzWGWQwDwHYw9Y9Cjv5SriBALpSIeYxDg7ryTGQAAl4jwBb3rzH1umUa9vqBM8E77zzjt7gdPquu+7Sm21mmNMF8WPE2jLwY9GDNmu0sjzyyCO62wxdqddee23QsvB3xb/77jvdRZqcnCzLli3Tvmr9VSaIxlatWkm7du10EbjIr78swXwDlQBb3kxgWdtgX9venSLBHyG6KjZs2CAPPfSQwOk4Bim/8sorl039dyd9PkMClRGAM3sMWkdLD1bohyutnJycyqLympcIgDe4g/+NN96o7QG7+DOgy9Qm3LC8yPTp0wULPjOQAAl4jgC7TT3H0uWUMDYFA8Cjo6O12LI5h3Y5obIH4N4KSwLAVyF+MPft26e7UxctWiTHjh1zN1k+RwJVEoBbtXnz5mnRgL8Gr7vuOpk1a5ZkZWVV+Qxv1J4A+IIzeIM7RPTcuXNN54u0Y8eOujsVLbNYXuSnn36qfeWZAgmQACcs+PMz8MADD+jssXq547Eny/T+++/r7lT8BYzuVIyN69y5syez8Eha7Db1CEa/J4JFXvHHAj7Td9xxh24Vso3B8nvhAqAAWHMP7qrwvcZvBgRcmzZtTF+zzMxMwcK+PXr00GU9e/asNG3a1PTlZgFJwIwE8L7kmDc/WWbNmjXy5z//Wb788ks9yBetbr/61a/kiSeekPvvv9/jpcICnRs3btSDzW1j4vBXu1kCxZtZLOGZcuTl5cmKFSt0132XLl20v0x87tBSx+AagSLlwR5jWleuXCmHDx+Wxx57TKZNmybh4eGuJWSS2GfOnJGnnnpKt8hhuEezZs1MUjIWgwSsQYDizU92wvg2dJViAc1f/vKX9lJUdd0ewQMHGA+HFwHWZ7KJODO0jFC8ecC4JkwCrS2JiYl6JjT+UBk9erT+3MFjA8ZqMlROAJOQ8AcXvqtYggNj2iZPniyxsbEB4ZYKY+DWrl0r11xzjTzzzDNshav8Y8CrJFApAYq3SrF492JNLWwVW+S8VZrdu3fbXwzoSoWQu/nmm72VXY3pUrzViMjyEdClipc2/GxiRmL//v212y0MsLd1p1m+krWoAHyLYgYvRNuePXv0WmnwJwtH8lboGnW16ufPn5cjR45IVFSUfhSttVZtTXS17oxPArUhQPFWG3puPuvM2DZn4riZ/WWPYVKDbZkRvCgg4vr163dZPG9foHjzNmFzpY8XNVqBIVawXbhwQQYOHGjfIiMjpW7dwJ1P9fPPP0taWprgjyjb1qBBA73EB8TskCFDgk7IzJkzR9scXalmGtJhrm8OS0MCpR6JOObNh58EZ1vVamqd80aRsT6UTcShSwutcd5yqVNZ+SneKqMSPNeOHj2qRQy8AkDMnDx5Unr27Km7C9FliOUn0MVm1XDixAnd2oiuY2wpKSnaoTsEK7xVYN+hQwerVs8j5UZrLLpSU1NT5R//+EfQ8/AIVCYSkATY8uZDs7o6ns3V+J6qCloDMLEBQg4vFLTEDRs2zFPJV5kOxVuVaILyxunTp8uJHbzY0VrVrVs3wQQIbF27dtV7zJ42g5su/NGFbkBMKjh06JDe4/jbb7/VLUoQoBCiNjHaokWLoLRtTZXGzHjbWOD8/Hz6Ta0JGO8HHQGKNx+Z3N2WNGdb6rxRDfiwhICDkIPjaYi4UaNGeSMrnSbFm9fQBkzCp06dsosimzjCHstQQLy1bdtWjw3DvnXr1tK4cWN9HfewwfdvVceYBYtZnRiHhe8rtqqOcQ+eTNA6iPXWMJYPe8THumY2Uem4h8cBBtcJvP7667p7HV2pw4cPdz0BPkECAUiA4s1HRq3NGLbaPOuJ6uHFaBNxGFQOERcTE+OJpMulQfFWDgdPXCAAH7+5ublaQNnEFIQeBFZFEVbVOYQbBJyjwKso+BzPIQwhyDCRAGIRG9zR4XPM4DkC8CCBP2LRnbp8+XI9ycVzqTMlErAmAYo3H9ittq1neNl4c/03ZxEcP37cPiYOrm8g4rB5KlC8eYok0yGBwCOAMZFoTYXARvf5f//736Cb0BF4VmWN3CVA8eYuOSef89S4NU+l42Sxq42GriLbxAaM2bEtM1KvXr1qn6vpJsVbTYR4nwRIgARIgAQ429SrnwFPt5jVtgXP05XFgHLbxAYstopWOAg5dDu5Eyje3KHGZ0iABEiABIKNAFvevGhxb4xV80aatUUAH4W2MXEYe2TrTm3evLlLSVO8uYSLkUmABKREMnbvkno3DZJOjUNqyaNAVkQ1kYtr8mV6z8a1TIuPk4B3CeB9GbirYHqXXbWpo5UMazm9+uqr1cZz9SbSw5IJSN8sAc6lISrRCnfvvfdqh9njxo3Tfi0xiJyBBEiABLxDoEQ+HjRU3jxU5IHkS8VfkRR7IC0mQQLeJ0Dx5mHGGJ/25JNPyttvv62XJfBk8pjthnSRPtZCMlNA1ymm80PEPfTQQ3p6P7pRX3nlFb2UgpnKyrKQAAn4gUBRruzbuFQWbsyokHmRZO7bKM8++54USJ5sXThJz9qtU2ewLN2eKVKSKfMGR8mzW4/r545vfVaiBr8gK+eMlxnqyvxej0sa9FtBhiycFFX67OA42ZpZgIuyMW6STJoXJ4NVa0WdOlEqzdJ0pOi4rJg6WMePnbpAtqSJhKonio5vl6lRiKu2wfNkX3aRZKhyr9meJgUlKoJjKEiTpQvXSFo28mIgAR8SUF1dDB4ioJYmMNTiksbq1as9lGLlySB95T7GQH5mDqo71VCtcYZyt2W8/PLLxnfffVdlcdVHvsp7vEECJGBVAoXGsdQkI35KtIHvuEROMTYk5+jKnDmWaqyLn1J6XaKNBRuSjc/jVbzoBONIfqGRk7pO31t3RKWxZa46jjYSd20wIlU68btyjMIz6cYCdTxzQ7pRbOQYCZFiRMcnGfnFhUbqhpkq/hTjSHG+sTxa5SsLjNScM0by6on6OEc9sWGiuh6TYKTn5BjJ65C+GAnJJ4zlKp2Y1cmqjIVG0oJIQ6YkGsf3rjai1X3EmTh3ubH3SGkdjOIsY/XMGH1dIicayxP3GjmFVrUVy20VAvgcsuVNUfBUePTRR7Ubn/vvv99TSVaaDtLHKu3Iz8wBvlLXrVsnc+fO1S5v0BL30ksv6VXozVxulo0ESKC2BEok5U3VQlYnTNpPWC2htz4tx3IKxUj9m9x68ROZpFq2rmg/Xb4OvVWSj+Wov9x2yNN3d5W0tTslsl99+WbrB7L36FlRQk0++yZH2o1ULWNKqcUOGictEvbKkwMjJDT8aolQEVp3vFpCCk7Iu6rl7MamZ2Tr5g/kW90QtlL+L1s1lZ0WiU+Ok8iIcOl59/+oNDdIZkG27Fkrsjx+inRX6/P1vDdOVPJSJA3k2qEi7z1wv8xbuknqjX5bziTEyDV975cdakzvmax0GdcuV+Z2bqla5mJl6eb/yMTFiWIUn5H0v46T3A/nSsuwOhIbt1RScis209WWKZ8ngUsE6l465FFtCHhrnFtVZTLj+LeqynrHHXfocXrPPvusXg0fIg7H6GJmIAESCEQCqqtxy3xRekomPjRORg/vI+0i0CmptFTGZ7JW37hTYkYPl6h2Efq6/qeFiPpfLqr/Ci5eKXPWrZbxXZvoW/XLYjUt22N3UR+rcWpl8xXCkMVFdbVxf1m3eoNcrx61x0HckPoqfZWDEm9J6rRpQ9tEhxBphvsqoZEvKiGWvFCu+u9n8j+9esgV499Uoq40hLfpLgNvHyP3zVSqUd6TGZ9klN4LCZfuvQfKmPH3acH53pIZknra9lTZw9yRgAcJULx5CCYG52/YsOGycW6YjfnDDz+4nAsWpawu2Ma/WWlSwMiRI+W1116TRYsWaddCmNgwf/58OXDgQHVV5T0SIAHLEWgs976hWqqOJcvQ/34onVs2US1Vg2Xhm9ul4d1/lcIzx2TL0P/KFNWCVU+NLYtb+KakHc8XNf9JTjf/pVp26F65d2Q32TLhATkuYZK9fb4Mnd9UNmxZLe/N6CdLU/LsRC6cUy1cIQ3lanWleadb5G41cWpktwKZ8ECiFIfZxJk9eulB427ykNJfr23eq+asKi2XtkWPnwuVH+TZsCtkZ70BMv3pv8lnSTOVRvte8nIzZeOKeaolES2GUXKgw3OSnpMvxt/Gyqnd78k8jLVTz0UlHJD5e9Mlv9iQ+7tz1moF6jz1JAGr9PFasZzK5Y6h3OcY//znP10u/pVXXml88sknLj9npQd27dplzJgxw1COxfWYETWT1krFZ1lJgAScJaDGnqWr8Wozo8WIjN/r8FSxkZW+y0iYqca6RSYYZ3L2GlPKxpap95wRo8awFZ7Zq8ebzU08pp9LXY5xa1OMdDW2bcMUjEOLNvbmG0aOGpeGZ2xbfBLiqzFvagxbQrKKgFCYrNKKMXBaeGSLfRyb7ZnlqaqcerzcpXTmbkg1kjEWb+ICIyn1mBoJ5xDyS8u2YF2ScexMuTsOkXhIAp4lgM9rHSSpDhg8TAAuXNBd+NFHH+nZofHx8U7ncOzYMbn22msFHgzgePuKK65w+lkrRty3b5+oSQ3SoUMHwTg5rBWHcwYSIIFgJFCkfNXmS0hYuITXuH5biSi3tMptVlkLW1GB5OYXSlh4hNT4KNCWqPhqLF6TNmoMnQPqkoI8yTlbKPWatpQIpxJyeJiHJOBlAlznzYuAf/e738lnn32mc/j8889dyikxMVF7KoBjbaydFuihb9++uorodq5fv75gQsb06dNFtcwFetVZPxIggcsIhEqEmkRQs3DDgyGXhBtOQxvrZ53WWyEqfgXhplNtHC6q14TCDTAYTEmALW9eMMvTTz8tixcvFrjIQsBCtnCk7GyAI3os8ouAsW1otfuf//kfZx+3ZDz8JWFrBE5NTbX7Tx04cKBuiRs2bJgl68VCkwAJkAAJkIAnCeg1CNlt6kmkoj0LPPHEE3bhhtSxgG1mZqa0bt26xsx+/PFHueqqq+TChQv2uPAX+q9//Uuuv/56+7VAO3AUb7a6ZWRk2P2n9urVS4u4UaNG2W5zTwIkQAIeI4AhLm+88YZebHz06NEeS5cJkYCnCVC8eZjo3/72N5k2bZrUrVtXt5hdVFPWIcKaNWum1ztz5gfhrbfekqlTp0p+fr40aNBAiouLdYtU+/bt9dIaEIKBGCoTb7Z6Qvja/Kf26NFDi7iYmBjbbe5JgARIwCMEfvrpJ/17GxISon9709PTJSoqyiNpMxES8BQBvC+5VIiHaGJ8G4QbxmrMnj1b7rvvPoHQQKsZhFhycrJTOWFRW4x1w3OYqIDlNSD+lHcCGT58uFNpBFqkTp066UkfcL114403ysKFC/VYQAg6BhIgARLwFIFf/OIXAuGGAOEGl3/oSTGbO0JP1ZfpWJcAx7xZ13YBVfLqWt4qVvTkyZP2MXGYkYtFfzFDtV69ehWj8pwESIAE3CaANSjRlXr11VfLzJlqzTcGEjABAXabmsAIlRZBT3cvlnDlzqVsAnyl0QLpoivizVZvLH6M1jds6E6GgIOQQ6slAwmQAAl4igB6Qxo3Ll1099///rfuAbC10HkqD6ZDAs4SYLeps6QqxitKkVjV57wiTTvQs9/NWBMrdQavkPJX7bedPDgu88KaSMsXduuVvyt7qCBloVqtfKFcWmO8sliBf00tZKzHB6I7NTY2VtavX6/F26pVqwQTPxhIgARIwBMEbMLtP//5j15JYNKkSXoNT0+kzTRIwB0CHPPmDjX1zFm1XVSTCRxDcZG6etrxiuvHefs+khMLEqVwcUy5RSMdUwrtECNJSTHSxPFiEB9jKZYHH3xQz0zFunjvv/++wPXWihUr1GKfuUFMhlUnARLwJAGsBLBkyRLp06eP7N69WzDBgYEE/EGA4s1L1Ety98mzscrfnWqhq1MnVjamlIqIjDfjJO5NeGUuDRlvzlPnGfqkIHO7/PmvW+TA/FgJi4qVpVsz9fWizI0yKW6FbFwTp9Paf+KQvL/nUJmz5DzZunRqWT51ZOrS7bVs+SsrmAV36DrFAGO0xD300ENK4CZpEffKK69Idna2BWvEIpMACZiNACalxcXFyVNPPSWY4ICACWnwjMNAAr4iQPHmFdJF8vZD/WR+00ck/dgRSVxwVsb1Giopyo3L+R+SZMn3pYv3IuvzP3ygztHFVyD/6DxUXpRRsu7IEUma1VFmjHpI9qk+2JLzP8jaJQ/LuAf+P0lYN0NaX8iQJfO/E7T77Vs6VkbN2CvrlDPk9F2rZeWMoXLH0hQkHbQBY1HGjx8v8NgATw1wv4WxcIsWLeIPbNB+KlhxEvAsAVtXamFhoXz88ceCrtSVK1fqJUY8mxNTI4HLCQTLePjLa+7VKyVy9qjKoJ/ylhfWVmKe3iSpw7+XqxXto9JCIqW+Pfd69vMQGbwlUZJ7jZDIcJHc8/1VnK/s8UQ9lXQmUYaoewVpX+vr9YrS5MUZO2XBrhy5t2+EutZdjqxLks4vfS4F03tK6fBahySC8BC+UrGhKxUTG7COnm12aufOnYOQCKtMAiTgSQJo8Z87d67g9wSLqWMilTMLsnuyDEwr+Aiw5c0dm5eUPXTZ0hRNy240lrtWrpbolQ9Ij5ZhqkvzVnnrK9VtWolUzv3PzrJn1KKQZw7I/YhfL0xaRo1T15s6yLwW0rziShgltjF3lxJu21OJvrRv5JStjGWpB/vujjvukDVr1sizzz4rR1TLJgQcjg8ePBjsaFh/EiABDxDAONsXXnjBLty+/vpru5tDDyTPJEigHAGKt3I4nDwJaShXq6hHszBt4VI4h+a2FjgvkLPNB8r7akLDmax0SVo3Tl58eKist81ODbWpsAI59IF6RDXQlRzfLL0mzJeJW9Ilv9AQozBZotW0iIuXkq/0CCVo5qDqsr7eoxrpfimtLum5Sp8L1otY9Pi1116Tl19+WbBeHH5w58+fL1jPiYEESIAEakOgfv3SXhX4aYZ7v9/85jfyxz/+UU6dOlWbZPksCVxGgOLtMiROXAjtLOOmiCwZNUFNRMiWkpICSdn4rPSbnSZTfjdcdVeekoU9OsuEv6dKeJvuMmh4f9XpeSmk/X2zZBaUyPHty+RhNXcB7XUl50sXGOnY5WppHJIr7y24X3aq6+fPqoFyZeEyIde4g4yPFpnxh3/IcRWtJDdFXh23ViLH3cQuUxu0KvZDhw6VZcuW6Rmp//3vf7WIQ9cH1nBiIAESIIHaEMBENbTuY4HfoqIijrWtDUw+WzkBOKZncINA8TEjYaIYiqp9i4lPMgrLkkrfMNd+HXEip6wzzqh7+UcSjWj7M9HGxEgxohOS1Z0sIyHmUlrRU+bqeyLxxonU5SqtGCO1LPH81ARDIhOMfPVUcdYuY6I9PfV8TLxxxFaIsrJYYQdG/gx79+41lBsc49prrzUef/xx44svvvBncZg3CZBAABI4fvy4oSY3BGDNWCVfEsD7ku6xFAX3Q4nkHs+WQiQQdoW0iyg/RaCkIE9yzqq79ZpKG8d7qqUuN69YmoSHS2i57s0SycvNkZKQKyQiHH2pRVJQEiKNy0eqpLhFkpt9Rs0+VWPl2ljTK4M7HhYqAVHrS5jyb/PagC5WeG0YNGhQrdNlAiRAAiTw5Zdfal+pXbt2lUcffVR7aiAVEnCVgF6CDGrR1QcZnwQ8TcAs4s1Wr9TUVLuIGzhwoO4CQVcrAwmQAAnUhgDWg1u7dq1AwGHMLQMJuEqA4s1VYozvNQJmE2+2iqanp9tFXK9evXRL3KhRo2y3uScBEiABtwj8/PPPUrduXT0m7tNPP5W+ffsKXP4xkEBNBCjeaiLkwn2sto3FYZ955hkXnnIuKv5K++ijj+TNN9907gELxjKreLOhzMzM1J4b0KXao0cPLeJiYmJst7knARIgAbcIqHFwMnv2bO2PeerUqTJmzBi30uFDwUMA70vONvWQvbGK/69+9SsPpVY+GSz+iLXJGPxHoFOnTvoHFq63brzxRomPjxf4UYWYYyABEiABdwm0a9dOz0qFV5gzZ864mwyfCzICnLDgAYOnpaXplhgIuCuuuMIDKZZP4vTp09KlSxc5dOhQwDarm73lrbxFRK8RZ5vYgK4OTGzAVu+yhZsrPslzEiABEqicQElJie7BwV14hYGwu+GGGyqPzKtBS4Ddph4yPRZ93b17t/zv//6vh1K8PBm06i1ZskT69et3+c0AuGI18WZDDlc4NhEHNzk211sNGza0ReHeywQw5yo3N1eysrL0lp2drRdFLSgokHPnzsn58+f1HsdVnWMtrtDQUIHdGjVqZN+qOodfy1atWkmbNm2kbdu2eoPDcnyOGUigtgTy8/P1QuKbNm2SiRMn6pmp3v5N4feotlbz3fMUbx5i/dBDD0nPnj3lkUce8VCKlyczYcIEwdIVcH4ciMGq4s1mCyz0axNx+BG0tcQ1b97cFoX7WhLAKvVofT58+HC5PcYjQnBBRNnEFHxLQmBVJcQcRRmOIdwg4ByFXlXHEIAQhvDQAcEIsYg94nfs2FHPIkRLOWYT2vYQegwk4CqBTz75RA+ZwVg4TG7wROD3yBMU/ZsGxZsH+OMvJLSGvf7664LZiN4KcLECUbBgwQJvZeHXdK0u3mzwCgsL7RMb8JKHiENrHGeR2Qg5t8dQgf3792vfkFgbC8eYndetWzctiGyiCHuMCYVI83eAvTE21VFc4vjbb7/VL97evXtLnz599IbjFi20Lz1/F5v5W4jAtm3blEefEhk9erRTpeb3yClMlotE8eYBk2GKNwTVrl27PJBa1UkE+ozTQBFvNgviBxYtcZjggC49W0scWoYYLidw9OhRPfTg888/13u0aqE121HsXHPNNZc/aJErJ06cKCdGU1JStANzrCE4YMAAwb5Dhw4WqQ2L6Q8CP/30k2zYsEH+8pe/SP/+/fUEqoq/J/weBcf3iOLNA9/A5557TtBl9uc//9kDqVWdBCZDTJ8+XbdEVB3LuncCTbw5WgLjViDisDinTcS1b9/eMUrQHefl5cn27dtFuQrS24ULF7SAgYjBFhkZ6bFuIjPCRSsiJjphrKxta9CggYwYMUJvQ4YMkXDlgYWBBCoSOHjwoG4sQOsbhgbwexR83yOKt4rfCjfOf/3rX8sDDzygX8puPO70I4E+4zSQxZvNyJg9hta4b775xj6xAV1+wRIwNmzz5s0CMYtuULQe3HbbbVqsYO28YA9YEBpiFl1je/bsEXStjh07Vq/7VbGFJdhZBXP9+T2q3vrB8D2ieKv+M1DjXYxvGTx4sKBVDIOlvR0CecZpMIg32+dj69atWsRBwNhmpwaqeLl48aIkJibKqlWrdKsxWgvQ+gjRhtm5DJUTwNhJiDiI/Q8//FB3H0+ePFliY2Olfv36lT/EqwFLgN8j90wbqN8jijf3Pg/2pzAODS8mjEPwRQjkGafBJN5sn5WkpCT9cv7ss8+0oIGQi4qKst229B7doitWrJBXXnlFTzCYMmWKriNmdTK4RgCzYCHiVq5cqSdDPPbYYzJt2jR2q7qG0ZKx+T3ynNkC6XuE96Vn5h57jq+lUvrXv/6l/dH5qtDoYsPsNYbAIABH98uWLdMiB+MmId7mzp0r//73vy1bQXTpPPHEE3oGKGZZbtmyRSBO8YcHhZt7ZgU38ANH8ARX/BaAM3gzBB4Bfo88b9NA+x5RvLn5GcHMH2+6xKqsWFgWgW6yKiNj7WsYoJ+QkKAXecYs1XHjxukX8969ey1TsZycHJk1a5ZuOcRg/NTUVFmzZg1Xh/ewBbHaPriCLzijpRbcwZ/B+gT4PfKNDQPhe0Tx5uZnBcIN66717dvXzRRcfwx/bVO8uc7NKk/gs4RZy5iZinFN9913n8yYMcPry9DUhg+6Il588UW5/vrr9fcBM+EWLVrkkzGgtSm31Z/FGFtwBm/8DoH/Cy+8oBcatnrdgrH8/B75x+qVfY/wewZ7mD1QvLlpIYg3vGxDQkLcTMH1x2wtb3DJxBC4BLDYM17EEHHw0ADPHdgwRs5MATMjIRq++uorPRlh8eLF0rJlSzMVMeDLAt7gjoWMDxw4oO0BuzBYhwC/R/63leP3CL9n+F0z+/eIjund/Nzcc889EhMTo/3OuZmEW49h0VJ0sQWaj9NgnLDg7AcAU98xYB0bhB3GxsFVmr8CXEPFxcXJjh079Hi9YcOG+asozLcCASwajskMmAUPUYd1wBjMSYDfI3PaBaUy+/eIExbc/OzAj6Gvx7vZimprfbOdcx/4BLCMyB/+8AfdEgf7z58/X3epvvfeez6vfEZGhl5/DBmjpYfCzecmqDZD2AN2QcA6cbAXg/kI8HtkPps4lsgK3yN2mzpazMljzDLFQGG8SH0dOO7N18TNk1+nTp20Sxx0p954440SHx8v9957r26R80Up4QIuOjpa5syZI6+99pop/In6ot5WywN+XmEf2An28rbrPqvx8Xd5+T3ytwWcy9/s3yOKN+fsWC6Wv1rdUAgIRi4XUs4cQXfSrl073W0JEXfLLbfotdQwQ/Wf//ynFBcXe4UHukjRXfvWW2/pVj+vZMJEPUoAE15gL9gN9mPwPwF+j/xvA1dLYNbvEcWbq5ZU8W2TFdx4tNaPsOWt1ggDJoHWrVvLo48+qrtT0cz//7P3LQBRVfn/H0tNXLXQsNKyTPNRjW2+0kxDLcu1sIdmJW5aLfbYLaw2w93cDVsN+1Xi7ob5r8VKLMNSaF16YYYWbS1WUEGFGaZYkFBCQkKd//mc4eKAAwyPmbkzfE+N93Wen3Mv93O/5/v417/+ZdyMPPvsszh48GCbjZPLcNddd51xRk1dKkmBgwDni07EOX/Wcmrg9D64eirPUeDOpx2fIzFYaOb9tGPHDsyZM8cQuO7duzezdOuzB2uMUzFYaP29QUe/lmED3UdQ4sJQVMcee2yDlTM4OoPAN5Ro2UzdqUceecTE2Wwon5y3NwKMJ3v33XebmLLHH3+8vTsbhL2T5yg4JtUuz5EYLLTgfrKkbv4gbuxur169jHd1WTptweQFeRGStBtvvNFI4ihpoUEDCRzDVDXkXub2228HP0gaSr/73e+M1IYB0iUFLgKcP94TnE9JvkdAniPfY+6NFu30HMmyaTNn2Nchsdx1TyxO3aEi5ywEGPCd0mHqxDGYOf3DkcQxzui+ffusbGa7bds2436Ebgvqp02bNmHnzp144IEH6l+S4wBEgPPI+eS8SvIdAvIc+Q5rX7Rkl+dIyFszZptBgv1prGB1VfTeLCRk2xgCdCB97bXXGp2nO+64Awy3RRJHz/wFBQWmKK2mjz76aEP2XOti6KU//elPZrm0U6dOrpdkP0AR4Dxy+ZvzyvmV5H0EAvc5qkS5ft+Vlpaj2vswBVQLdnmOhLw147YhcWM4Db7w/JnE4tSf6Adm2xT3r1u3zriPYFxMWqfS1QhjqTJO7+uvv46VK1fWDo7SOgZyvvjii2vP+Wtn57oFoI7Hyh2ljXShHKuGdcDyRvMA1aU7se3dna17IVVqvVfdH/bJ9bdgzbtN11tdih3bdqDUT29Ezifn1W7ROhqZ2IC+ZKfnyFMg81JXYmKHEHTv2RM9e3ZHp2Hz8crOGsl8A/f+xOmLsK3QGVIqZ81881xMX3VYHaM8Z5XLuXKsmVP32enQYRimz1+OHcV+ejA8Bacmnx2eIyFvzZg0S9+tGUW8klUkb16BtV1Uevnll5vA5rGxsfjkk0+wa9cuM+4ff/wRMTExoFoAE5dcIyMjzb5//ynGiw+tMF2489n/NkKOPAxTt+dFTBj7YiP1eDbaAzpbdFKmjjWcC0bASE+KxYp5Y7H4lcImKtiFERNGYJcf31GcV86vJO8jYJ/nyLOx7k5dgKHT78RWnT0iOgbREdqYKWc1pg48H6m7XeN9OhCh7yPeS+E6y9bUZZjQ92HsZjOVNZbuh3hQL1nn+ADpFB5RUwdykLp6IUb0vh15rs04s9nyX78/R9oqTZKHCFxyySUqJSXFw9zey1ZcXKxCQ0MVt8GS9NMZLEMJiHFoIwV14oknqs6dOytiz5+WIqmwsDBzX+nYfop5/J0qchN13yJUQmKM2WaVHe5RVVGmiolwmL5HxcWrKD2G+KwSk6EgI1GF14zLERmnskuqVFluUu258KgkxaqyU+JrzzkiYlTm3ipTviI/WUVGJ6jkxOgj2lUVWaZMfHbF4c6oCpXggHLEZTrPVRSoxOgI0zeER6qkzL1KVeWr2HAn1nBEq2yXsbhU5PVdzivnV5L3EbDLc+TRSKtyzTPEvwWxaQU1RapUeqzzGTP3tr739SedQkSivuOtLFa5CJWp7+nshEhz30fEZ1k5VFl2gsu5MpUYwecgQmXVVlKkEqOc7USnWG3XFrfljj+fI86RSN40Cp4kfl1//vnnOO+88zzJ7tU8NPUX6ZtXIQ7qyv/6179i+PDh+Oabb3DokPUprP8aaPci+oMAZ511lpHI8R7zd3o/eR4QeRNujrwOEUjFhu01kq3qPNzeeyyWHbgM6ZkZGJBzJ1bXdLY8bw1OnTAPgxLStWQsEzP3LMSwnstw4ORwLIzXFA+RWDD/AnTcvQ7DtJTh10kZKMjPws09lmHsrWvBD//qg99h7YpbMXPel4hPuhOndKmLRA99WPl9ic5YicrKShTueAmP5wCXjeynr5Ri1dRTMS/9dKTrJeqUqcDssX2xobAXrlgYD4f+L/7BWTi5Xp11W/DeEefVkrh6rxWpmQgQZzs8Rx7NRuX3+IYZHbG46VLex0wdMSnmHRTpkJBv3fZr5yn+e6AIX2mduOLiUhTmfuwshx74lYcCcKuiQ7US6DCMv3CsOf3hV99Zl2299fdz1EyobY2lVztnWZmecMIJXm3H08otvbcxY8Z4WkTyCQLG0z59u40dOxaDBw8GlW9p2GBtqcNFHbgVK1b4P6i5JmirFwMx6WN1H0Nxk+Zd0xNew6JL56Jj7lZN1hzIfHkpxujY65NGZuPttU5d1I9TH9Uf9Un45y2T9KsHuP+lDCT3nIDX9izAtVPO0i+nzpgyvB86lg5HSkomJkWMQZfKUpztCAfWHkCFLuM00XAgvSQFk0KPvHFI3hZO6IuFrpci4rDx/D6o1OTx1q1Acv4yTBqgGZojDrEL1+LZ/3yNlJsnohc24oIpYxDqp7++DFbPZXJJ3keAOBPvQEjVJUXYxY72P0XTMJfUsRvC+tSMwVrS3LoQQ3vWufsRnfI3OPTtrr9hPE6dXXL2dZC8ra7btst1u+36+zny058Pu01D0/2xg5Wpay/J+vPz811Pyb4g0CQC9BTuSZQExsak+xB/+TPkQIozU7GWO5N7Yxm3Jj2N94rnYjQoMYzEAOu92LE/pmrdmwP4Hh+uzUH4bQ5D3EyRkOPQX+8UHaxCNVlZziGj89YlpBMK34xB9+lbTTbzT/isGuLGo144rgFDW6rsxKRkY8HIY1FhpAch6NMvzLRZXuV8w80cGGKqtP6JOKRDl9VIGg5LHKyrvttyXhm3UZL3ESDO/n6OPB1lx569zXOSs6vIfMBYjxYqi5H3xX506nUyBvS0aotEfOJkTbQq8dHGx7EiNQcrkrdjScT1qDpUo9DmyswaiNp3WO4PfPF2ulV5QGz9/RzJsqkHt0lFRYVfQ2K566IleXN3Tc4JAq1FoH///n7+OKjE61qBGVGJyM7NBi1kc7NS9NLpViS+ngeYl0EO9tcuu3yLD/Qnfxf9Xx/9Ab+1+PvDEFT/aCQKvbvWZWI5a+7CrSsGIaOgCFrTDXvTooH9rq+Tw1XU3+Pr6USNUViffmCs2X41xM3kq2IdWmq3twJVZWWoqChDdkYa/nLFoNpqOvvxs5kffZxfSd5HwP/PUTPG2OU4nMjsOQuRuKWwpmA1XonpjaHDhuKuVCOXc56PmIyouXMxd+4teGzNCoTz7J4D5rE85dxxJs+u3UVmy38+2Lze7NfQutrztc9B6btYrlUWmMaNDox709/PkZC32tuo4R0umdLxqR303axeiuTNQkK23kCAAe+3bt3qjao9q7P4HTyk/5bHz58BxxCtJaZDeA0ZHoE7Y/TK5kOpqDjlbE2P1uKJF3bob/9q5Kz7R43OWxf8epomYYtvR2oeXYuUI3VplF7KicakIVqWYEjfN9hTWlkjIeiFU/uEobrwXTwwdQWFbUbqYHWyUSpX5V6c0G3QBZpk5iB+w/uo1ktmZZ9uwLAJU/FGoc5vyOZWLckotprw+ZbzyvmV5H0E/P4cNWeIHYdgQWKkKbFwcl/MWbQEi+YMBx8LbReKe2a5htGrPPycaMn2yTXt8POoex/nUc6yqZi+YDlWLpmDCYu3mhxXXuBKzFJx96zpmD5nutZJHeuUsofHY94YN3oKNfXbaeP358iWZhw269SyZctUdHS0rXoVbBan+qG0Fb7tvTOvvfaa0kYNfoMhPylKW6NFq3yn8WdtP8qynFZryQUVKj8lVuepsd6E01ItwZhwlqikaOex83q4Ss52WqHSitR5Lk4V5qcYq1GrjugYtqktRrWVnNM6LkLVMSi1eqEt7iJ0Pmdb1sm626JMZz+tuiPj05UZirY4jdFWqVoyZyzz6pbyzRHnlfMryfsI+Ps5av4IK1SmsbC2nituI/XzU+SsqtbaNMFYa5uTFdlOC1R9T6fo55Jpb0aC0lSv5llzbmOSs801pUs6rU3rXg+PTlQF9Z73mgK23PjzOeLfFQlMr1FoKl155ZXGU/2sWbOayurT66NHjzaOVYPBaIGK8voJ9Sl+0ljDCNAzPKVdNFywg6PehnpaXV6MIr0W01NLz7SudJ1UXlyIkgpe64NursuUtBDV2mldtKEGqstRXFSBkJ5h6KYrqNb6YNVduulrdapq2UFlOQp1B0J6hCK0bge0hape4m2TRprXNTpj1h+ioNHKUUfJwkvz0Gt+7kB5jo4YmTbgKSwq08amIW6frSPyuzth6tAPoBY3d+rZB2F1ngF3BQLnnL+fI+McnJQ2cCDzfU8ZRojkiKGFTjvtNN93oJEWZ8+ejUsvvfSI0EaNFLHtJSFv9psaxmRcvHgxsrKyjDWq/XooPWoOAlV6mXfEiBGgg+YrrriiOUUlbysQkOeoFeDZsKgdniO+L+XTq4mbw7IytRtxY7dF762JyZPLrUKAL/gBAwbgL3/5S6vqkcL2QIDzyPkU4ubb+ZDnyLd4e7s1uzxHbbE44G2s/Fq/XUJiuQOB5C0tLc3dJTknCLQJAnQZMmrUKIwcORKMjyopMBF46aWX8Nxzz+H9998PzAEEeK/lOQrwCazpvp2eI5G8NXFPWc55m8jml8t0FyK+3vwCfbtplNE8uOxz22234a233mo34w6mgXLeOH+cR86nJN8jIM+R7zFv6xbt9hyJ5K2RGSZxO3jwoK1chLh2l2GMrr76avz000845phjjPf8jz76CN9//z2OO+44nHPOOR45ZHWtU/YFgfoI8D6i1GbmzJlYv3693FP1AbLx8ZtvvgkaWnHeOI+S/IeAPEf+w761LdvxORLJWyOzaknd6OPNjone7xcuXIiEhATjKHTRokX48ssvQWVGbnlMB6K0GJQkCLQGAUZl2LBhA6677jo8/fTTralKyvoIAc4T54vz5klUDR91q103I89R4E2/XZ8jcRXSyL10/fXXGzcJ8+bNaySX/y5VV1djxowZoPULg41TN6l+oo4LrzF2Jf+IM46lHZNYm9pxVo7sU15eHug654ILLjAfBRJm6UiM/H2G8TTpDmT79u3YuHEjhgwZ4u8uSfv1EJDnqB4gNjy083Mk1qaN3DBFRUW2C4lVv7skbpSsbd682S1xY34SOl5nPuaXJAi0BgESAUvpnctAb7zxRmuqk7JtjADnw1oe5TwJcWtjgNuoOnmO2ghIL1UTEM+RLV0X26BTKSkpasqUKTboifsuPPbYY+o3v/mN+4sNnGV+lrNj0s+gHbslfWoEgVdffVVp1xPqmmuuUbt27Wokp1zyNgLEn/PA+eC8SAocBOQ5ss9cBcpzxPel6Lw1wNzt7CKEXX700UfNcmgD3Xd7msunLCdJEGgLBPTHDT7++GMj6WG0jwULFoASa0m+Q4B4E3fi/+tf/9rMB+dFUuAgIM+R/+cqEJ8jIW8N3DeWsUIDl/16mpYvffv2bXCptKHOcQmV5VhekiDQFgh06dLFGMaQxFEP48wzz8Rdd92FvXv3tkX1UkcDCBBf4ky8iTvxj4mJ0SG36gcJa6ACOW0rBOQ58s90BPJzJOTNzT2TnZ2NPXv22NZFCN2BuDNOcDOUI06xHMtLEgTaEoHevXsbqS6fHcbMHDZsGObOnSv3WluCrOvis0tciS9xJt6UphN/SYGPgDxHvpnDYHiOhLy5uVcodTvvvPPQs2dPN1f9f4p+3Hr16tWijrAcy0sSBLyBQB8dBP7//u//jPPowYMHY+rUqbjwwguRlJSkg7HraOySmo0AcSN+xJF4Elc65ybOxFtS8CEgz1Hbz2mwPUdC3tzcI3bXd6MD3v3797vpedOnWI7lJQkC3kQgNDTULON99dVX+P3vf49nn33WEI05c+YYT/8VFRXebD7g6yY+jIhAvPgiJ37EkXhyeZT4Sgp+BOQ5at0cB/NzJH7e6t0bZWVlGDt2LJ555hkMHz683lV7HFJnjQ54MzMzm90hjm3p0qW2c9opft6aPZUBV6CwsNAQEsYHpBuLcePG4ZJLLgEVtocOHRpw42nrDufm5uK1116Dtj7E22+/bVQjGE+Wgc1FwtbWaAduffIcNT537eE54vtSyFu9++D111/HkiVLkJGRUe+KvQ7pt+3FF19slu4bX5gMp7V79257DUb3Rsib7abEqx0qLS3Fli1bDFkhYWGIt/Hjx9f+HA6H0enyaif8WPkvv/yCnJwcbNu2rfbHEHcksvxNmjRJpGt+nJ9AaVqeo/b5HAl5c/OEPvjggzhw4ACWL1/u5qp9TjHkFYkmHfB6mqZNm2YiRtD7ut2SkDe7zYhv+6P9KxkSw6gAJDT79u0zkm+6wOCPhjannHKKbzvVhq19/fXXRtr43nvvgb8dO3bgpJNOMmSV0SpIXPv379+GLUpV7REBeY7ax3Mk5M3N033ZZZeB4bAoobJ74nIKJXArV65ssqt33HGHkbhRj8aOScibHWfFf32ibiYlxRbZ4T6lVVTWP+OMM8xv0KBBZjtw4EDYIUwXw+nQkOCLL77A559/brbc/+yzz4wUkQTUlYy21OjIf7MiLQcaAvIcBdqMedZfIW/1cOIfXi5XUJeM/tDsniS2qd1nSPrXlgh8++23taTIIkfc7ty505A3PrPUDeOWUq1u3bqZ8yR2/HXt2rX2uP4+/WzRGu3gwYMgCeOvoX1eKy8vN9JB+omiDhK3zH/66afDIpWu2xNOOKEtoZC6BIEWI+DN50jHSjAqMA09O67n5Tlq8RQajEXnzQW/tWvXQofFQnJysstZ++9yCZW+nvjS4tc9dWmoM0RpheWE0I5Lpa7IiuTNFQ3Zbw4CfGEUFxebe90iU3xBkWDVJ2ENHZO4kcC5krr6hM/1mMSQhMwii3z2wsLCzB/V5vRd8goCdkGgLZ4jWneGhITIc+TlSRXJWz2AaYpPvZO777673pXAOKQVKp0PMlyOjmFqwhZNnDgxIDov5C0gpkk6KQgIAoJALQL/+9//jI44V6yYfvjhBxx77LG112XHOwgIeXPBlUuQdKNBKRZdGARyCkQiFIh9DuR7RPouCAgCgkBLEWAs0EceecSsUlGf+pZbbpHQbC0FswXl+L7s2IJyQVmEjnmZGFlBkiAgCAgCgoAgIAjURcDSaTv66KPNKtX69eub5a6qbm1y1BoEhLzVoGeFxOrYUSBpzQ0lZQUBQUAQEASCCwEuj1IXnG5tLr/8chOekdI2Sf5DQMJj1WBvt5BYf/3rX50WJfSk3Mwfh9TcMlZ+titJEBAEBAFBQBAgAi+//DKuueYaUOomkVDsc0+ItameC1qoUd+NHt/pMyrQE4kYH7RASoHY50DCV/oqCAgCgoCnCOzZswcnn3yyyV5QUIDvv//eGMB5Wl7yeRcBvi9F8qYxptRt2LBhQUHcvHvLSO2CgCAgCAgCwYoA3Uvde++9uP7668GoIEynnnqqEDcbTriQNz0p1HcbM2aMDadHuiQICAKCgCAgCHgfAXpcWL16tVG5od/QQA5H5320/N+CLJvqOZgwYQLuv/9+E/fT/1PS+h4E4hJkIPa59TMlNQgCgoAg4D8ErLBzlpcFhtOSsG3+mw9PW5ZlU40UA0SXlJSI5M3Tu0byCQKCgCAgCAQ0AgzpxuXRWbNmITs7G5S6MQlxC5xpbfd+Majvxq+O7t27B86sSU8FAUFAEBAEBIEWIsAwcQzv9sILL2DkyJEtrEWK+ROBdr9s+tvf/hbjx4/H7373O3/OQ5u2HYhLkIHY5zadNKlMEBAEBAEvIcDl0c2bN2PKlCk4//zzvdSKVOsrBNr9simXS8VYwVe3m7QjCAgCgoAg4GsEnn/+ebM8yqDxffv29XXz0p6XEGjXy6ZcMqUvG4fD4SV4pVpBQBAQBAQBQcC3CHzzzTc48cQTTaN0g8XoCCNGjPBtJ6Q1ryLQrsmbFRLLqwhL5YKAICAICAKCgA8Q4PLohg0b8NlnnyExMRGhoaE488wzfdCyNOFrBNq1nze7hcTy9eRLe4KAICAICALBgQCjIDz00EMmus6f/vQnQ9yCY2QyCncItFuDhdzcXEybNs1EV+jdu7c7bAL2XCAq/wdinwP2BpGOCwKCQFAgwIDxXbp0wdlnn23G8+233xor0qAYnAyiQQTatcGCJXULNuLW4GzLBUFAEBAEBIGgQIDxRumnbebMmcZPmzUouv+Q1D4QaLc6b2Jl6v4G37lzJyorK3HWWWe5zyBnBQFBQBAQBPyKwL59+9CtWzfjp23UqFF+7Ys07h8E2uWyKU2mx44diyeeeMI46PUP9N5rtTVLkM888wz++te/GgvcCy64wPjA80Xc19b02XtISs2CgCAgCPgfARoivPXWW7jsssswZMgQ/3dIeuBXBNrtsimlbl27dg1K4tbaO4pOi7dt24brr78eFM3fcsstmDRpEhYvXozXXnsNJL6SBAFBQBAQBLyPwM8//4ynnnoK11xzDYqLiyUSkPchD5gW2qXkjRY5VOx87LHHAmaimtPRtpRilZWVGTK3fft2syV5syRy3LaVjkVb9rk5WEleQUAQEATshsB3332H448/3nTrvffeA/8+yvKo3WbJf/3h/dAuydsVV1yB6667znid9h/83mvZm0TIInHc5ufnGyJnkbmBAwe2eFDe7HOLOyUFBQFBQBDwIQK0HmW80f379yMhIQGdO3f2YevSVKAg0C7J21dffWX03WhteuqppwbKXDWrn74iQh999BFI4ixCRz1CxoklmRs+fLgt+9ysTklmQUAQEAR8hMDevXsxe/Zso84zY8YMkbT5CPdAbKZdkjfGeVu/fj02btwYiHPWZJ8/+eQT4/OHW1961t61a1ctiSOZ69evXx2p3NFHH91o331FOBvthFwUBAQBQcCHCPAD+Nhjj8Vpp51mWt2zZ48J2ejDLkhTAYhAuyRvCxYsMHpa9913XwBOWeNd/vHHH81XW1hYGIqKikBdiV/96leNF/LCVepruErkSNwsiRylcgzZUj8JeauPiBwLAoJAsCJAl0z0dsCYo/Hx8YiIiAjWocq4vIBAuyRvXNpbtmwZwsPDvQCpf6ucN2+e6QBj2rnu+7NXhw4dqiORY8BkEjhLT44SOiYhb/6cJWlbEBAEfInA5s2bjesPWpGOHDnSl01LW0GAQLsjb3QRMn/+fBMSiyFFgimtWbMGDz/8cK20zZLC3XPPPZg7d65thkp/RZZUjsq5Fom79dZbTUw+23RUOiIICAKCQBshwL97/HtHXTaujEgSBFqDAMlbu4qwYIXECjbi9umnn5pQKW+++WbtMimXS2m1RAkjTcztEjGBfeGPy9efffZZrRsS3shcOrDIHCWkkgQBQUAQCGQEfvrpJ6xatcosjZK4/fLLL4E8HOm7jRBoV65C6Hh2ypQptpJEtfZeaErCVl8i19r2vFWeXxI0JLEsV6nE66on5w/dPW+NVeoVBAQBQUAQEARaikC7WjalU15Kc6hrMHTo0JZiZrtynui2eZLH3wPjzaiUMt0oLy+vJXEkczy2JHLcnnjiif7urrQvCAgCgoAgIAj4BYF2Rd5SU1Px+OOP45VXXvEL2N5o1FOpWlPSOW/0rbl1upK3+mXffvvtWjLHpVZXidygQYPqZ5djQUAQEARaiUA18rZloNO5EzCgW2u1i8qxalh3HFpThjuGd2tlv6S4IOA08Gs3y6aLFi1Cp06d8JiWkt8AAEAASURBVMADDwTF3FPPjfps1HPzRJ+tufl9DVJj5M21Lzk5ObV6cpTKjR49ulYqN2LECNessi8ICAKCQAsRqMTKDiH4IasM97eacFVq8haCA2tKcO/wI90ktbCDUqwdI8D35VHtZfyWsUIwjJeSNJqYL1++3CPixjHTYS/zsxzLB2pyOBy47bbbsG7dOmRkZIChzvLy8vDb3/4Wl1xyCZYsWWIIbXV1daAOUfotCAgCzUWgshjvbliJ5Rvy6pWsxM53N+i/C6koRyleWT7HuCXq0GEiVm7ZCVTvxKKJw7Dkld2m3O5XlmDYxKVYfd8s3KnPLB5xN3Iq9U55HpbPGeYsO3EBXtlZzpPYsGAO5ixagIn6ZdqhwzBdp7MeVO7GqvkTTf7p82ORlgPQv0Hl7i2YP4x59W/iIrxbWIk83e81W3JQXv9PVnkOVi5fg5xCtiVJEKiHgNYzCvqkvVgrvbymSkpKgmKs2vWH4q8lqTVlW9Kep2X0belpVrf5dCxAtWnTJqVdo6gxY8aYH/dTUlIUr0kSBASBYEOgQhVkp6u4qHAqyyo4olRyVpEZZElBtkqKi3KeR7iKTc5S2+N0vvB4lV9WoYqyk8y1pHxdR1qM3g9XKRnJyqHricsoUhUluSpW70cn56oqVaTiHVDhcemqrKpCZSdH6/xRKr+qTCWE63YRq7KLSlRWYqTZL9IlkiP1+Yh4lVtUpLKSWD9UfNbXKkHXE5GYpftYodJjHQpRKWp3ZqIK19eZJzImQWXmO8egqvaqxOgIcx6OSJWQkqmKKoJtDmU8LUHA3O8tKRhoZVavXq20ZCbQuu22v9oBr9JSNKWV+N1eb+oky+llVsV67JR4M7ZV0o6B1ZYtW1RsbKy6+OKLDV7av5969tlnlQ7j1VbNSD2CgCDgFwSqNCGKNUSLpCY+KV0V1LCaoswkFakJEslYTHySyiqoIUJKEy193qHJUUpysv6oSzDlo1IK9AiqVFpsuCFJ4fGZNSNy5o/LKlOqLMuQq+iEZKUjIqjkRJI3qOSCUlOnycNSZZm6TofKLCtQ0fp6Qq7FtIoMEYzTxDItmn1zmL5lZOWqEiuLLl6yN1elJMTWELkIFa8JZxXrrSpRuRkpKraGpEZEx6usInOFVyW1QwR4/7WLZVMumZ533nl6vIGdLH9u9N/WUtcZlv+3e++9F4x/GoyJuo0TJ07E/fffj9deew3PPPMMhgwZAi2Zw4QJE0CXMQkJCaD+nCRBQBAINAT0UmPaYvDpjbx5JqZdPBr9wpxO1/fnvYW15sKViJh2MYb1c3GI2wvQ/+OQ/q/80PG4LykRswZ1N4PvXANBj5otN4fMfhUsb6ghbEJHjEG3cUhKTMbZumhtHubt2FnXr1soL0S6PuzR1TJ06IhjeV1XdOmyEuRmLceJP7yF20cMRc9Z68BVWabQPkMw/jdX4IZoLf9DKu58Pc95rWMohowajytm3QBzZcWdyN5vlTJF5Z92iEDQk7eysjITUUEvpQX09LZEz62hAQeL/ltD46t/noYM0dHR2LBhA9544w1cdNFFJhLFVVddhcsvvxxxcXGgRaskQUAQCAQEuuH6ZxVKCrIw+YfNGNi7u9Yhm4jl67ag64x/oqKkAGmTf0DUwN7opHXLFixfh5zdZeihmdn+487SUQ6ux/WXDkba7HnYjRAUblmMyYt7IDktEal3jsXKHaW1IPz0o1ZE69gVJ+szxw04HzP0h9+lg8sxe14KqkIsclab3bnTbTBu1izr/23KBNXYynPSjP5cF3yHJSE9sbXTBbjj/ifwVrqWz6XuQWnxTmxYtQjDdF97njoMH/V/ELlFZVBPXIVvt6ViEXXtdLlh8R9hcWYuyqoU5g4Rq9V6qLe/w2CXOGrJi9KuJQJ+mN7QVfNGnS0FWj95LS3a4nL79u1TWoqp7rjjDjV8+HClpXJKWyWrtLQ0pUl/i+uVgoKAIOBDBLTuWa7WV4sO18uicdayJ9uvUntzM1R8tF4SdcSrkqJMFaX/zvBvDX8RWoetoiTTLFPGmOVTpbITqLcWpXK1bltyFPOF62VQpYq0XppVjtu4dC63OpdW47m0ylTB5dUIxcOK/LSa5c/D7SVk634afbnD52KSs1UWdfEiY1V6doHWhHNJehk2XLcVy2Vh1/VVlyyy2z4R4D0Y9K5CaH1I6RstLQM1eerPrbnjs5P/N09dhTR3jJ7mJxZWzNVt27bhhx9+qPUnR79yJ510kqdVST5BQBCwLQKVKC4uQ8eQUIQ26b+tGpV6dbJLlxoJW2U5issqEBIahiaLcvzVOn9RBbr3CTOWphYk1eWlKDpQgU49eiPMo4qskrIVBJwIGGtl8tZgBuSyyy7DjTfeCC6RBWLytn82b9fvKeb+Jm/1+5mZmVnrT44YuUZ4GDx4cP3sciwICAKCgCAgCPgEgaAnb1988QUmT54Mvoj79u3rE1DbshFfSca8JdlrDhZ2I2+uff/4449rIzxQOjdy5MhaMsd9SYKAICAICAKCgK8QCHrytnbtWjAsFq0zAzH5MiapL9tyNxd2Jm+u/d29e3etRI5EjnFWXaVynTtbdmuupWRfEBAE7IRAfHw8CgsLMXPmTPMxZqe+SV8EgaYQCHry9vvf/x79+/fH3Xff3RQWtrvua2mYr6R8DQEdKOTNtf+lpaV19OR++eUXQ+QsMterFx0TSBIEBAF/I/D+++/j66+/rlWfqajQumshIf7ulrQvCLQIgaAmbwyPRPcg/MIaN25ciwDyZ6GHH34Y06ZNM2GtfNUP+n37z3/+gz/+8Y++arK2nUAkb7Wd1zs///xzHYkcJXQWieOWHxGS/IsA1XuLi4uxd+9e86Pk5dtvv4V2XG1Cxh08eNBs+SHDn7vjSq3B3qVLF3Tt2tX4WqTfRP4aOu7WrRtOOOEE9OnTx6huUH0jLCzMhEfyLxrto/Xvv//eGKs9//zzJoTeXXfdpV2GuHpzax84yCiDC4GgJm9c0lqwYIHx8Xb00UcH18wF4WgCnbzVn5IdO3bU6slR55IWqyRx/J1zzjn1s8txGyJAQvb555+DOq+u2507dxqiRQJlkSlaEZNgWSSsPhFzJWXcJ3EjgXMldg3tkwCSGGqXNLVkkcSR+U8//XTokH0444wz6mxJ9CS1HoGffvoJxxxzjKmIxG3gwIGyPNp6WKUGmyAQ1OTtkUcewVdffYW///3vNoFbutEYAsFG3lzHmp+fX0cqxxeJK5lzzSv7zUNAx60Fl8Tee+898+M+l69pEUxi5EqOiDvJmb8TSR3vCVdyyf3PPvsMRx11FEaNGoXRo0ebH/dl+d3zGfvf//4HHcIKAwYMQFSU9uomSRAIQgSCmrxREXX69OmIjIwMwqkLviEFM3lznS1KhSgVpi85binNsSRyJHTdu+uYO5IaREDHpq3FjhhSqqUdLNchO6ecckqD5e1+gXpZrmSUElxKBy2yz60swbufRd4POoa1MULQDsh9qnLivkdyVhDwDgJBS964NEF9tzfffNOIy70Dn9Talgi0F/LmihmVpi0SRyJXUlJSR08uEN3buI6vLfZpFLJlyxYTo5ZxarkcRgJj/RwOh5FWtUVbdqyDUkTG4OV9Yv24HDhlyhTzmzRpEkJDQ+3YdZ/06csvvzRL0GyMjrWpxzh06FCftC2NCAL+QiBoyduLL76IxMRE/Pvf//YXttJuMxFoj+StPkTvvvturVSOvuVcJXJDhgypnz1oj/kC3rRpE1566SUjhaLB0SWXXGLIiryYgdzcXENmX331VROTl0urdEJ+xRVXGF2+oL0xXAb24Ycf4rnnnjP3yMaNG3H22We7XJVdQSC4EQha8kZryWOPPRZ//vOfg3sGg2h0Qt7qTiYtfymNs5ZYzz333NqlM+pDBVs6dOgQUlJS8NRTTxndNVpaX3311Ya0iUuHhmeb0luSOH6wbt682Swf33TTTUZlJJh9Di5evNgYjlA9huRVkiDQnhAIWvKmA4yDD/dFF13UnuYzoMcq5K3h6aMelEXiuO3du3cdqZxlVddwDfa9wmXRVatWGcMiGhdQyZykjVadkpqHAK1gSeJWr15tjCH+8Ic/4JZbbgmKZVXqAVKtgBJYJsarFv3Q5t0fkjt4EAhK8paVlYUbbrjBhMSShztwblYhb57NFfV6XPXkKLGylNm5zEofYoGQuDT66KOPGvWGyy+/3Lj1ERcqbTdzH330ER577DG8/PLLYPQU+jeje5RAS/TLR5+XGzZswG233Ybbb79dnOsG2iRKf9scgaAkb48//jhoofXkk0+2OWBSofcQEPLWfGypzO4qkaNrHFc9OfoSs1sqKirCQw89hGeeecZYBjL6iRhmeG+WaLxFt0kW3vfdd5+R3Hqvxbapmfc23aZQwsbwhsOGDZPl0baBVmoJAgT4vjwqCMZRZwhU+j7vvPPqnPPnQWXeOuNNvcOcNSiv05FKbFgwzFxbk1P3Sp1sbg5yVk3EsOU73Fxpm1Perr9teim18OVGFYE//elPSEtLw7p168xLjlEyKI2bNWsW/vGPf4DK3f5OXNJbtmyZUSxnpINPP/3USN6EuHl3ZogvJZzEm7hTsX/p0qVGX8y7Lbesdvppu/fee0EjBCaunlCHT/TaWoanlApeBIKKvFEnguSNbkLskqqrDji7svZRvFfs0qvyD/HPFTnmRGVVlcuFpnc7NZ2lVTm8XX+rOieFG0SARg3Uc1q/fj0yMjLwm9/8xhC3a6+91uzzpc0lV77EfZno4oOkgSSSznS5nEe9PUm+Q4B4E3fizyVVzgfnxU6JHyA0QKBUgZI2SYKAINAwAkFF3kjc6KCTvp/sl3Kw/vWdtd0q3J6KrTVHh8y2FK+snO+U0uk/XvNXbnGR1JUidfkcc23inEV4Yv1W9LL0uSt3Y82C6c5yE+dg3buFprbKnRswZ8EqbFizQF+bjh1auJeTuhITdd3mj+P0RXi3sLqmBw3XX128A0umOyWErGdNI/XXVCYbGyBAD/PU/aT6AAnbzTffjO+++87oPlEqFxMTY6wTqUPXnNQcKR5DQ/3ud78zuko0SiCpPO2005rTnORtYwSIP+eB80EdMs4P58lfiTGArUTClpqairi4OBMZwzovW0FAEHCDgP4KD5qkLUzVokWLbDWesuwELeaIVAnxUQqOeFVielehEiOgIuLilY7/oOKzSlRmfLjO51BJmbkqNyORohEVHp+lc1ep9BiHuZaQlqHSEnQ9+lpEAq+VqIRw6HqjVXp2tkqJizTXkguqlLNdfQ0RKj4pXRXuTDLXopMyVEF+loqP1NciElVFo/UXqBjdFiLiVFZ+vkqLd9aflFt2RP1FVa2DnWOS5H0EtGsJ9frrrys+K9rBq9IvTKVf4kovuSpt1dpkB84//3z17LPPNplP+yJT2jed0qRRaXLQZH7J4HsEOC+cH84T58uXSUsAlXbppLTbG6Ud7fqyaWlLEAh4BPi+DKo3pvY6rrSvKFtNjEXeMvPTlZYHqrQi3b2yDL3vUGm5mU7y9s52FaGvxWbwojPlJ2mipMlemXISqJj0w9fSoqEcmthV5DpJXnJ+RU2pvSpW1xORkF1Drhwq3ckWVVVJrsYmU9en6WBFiUqPC68hkw3X7+y7Q2WykEklKt6h247LOqJ+K0dLt0LeWopc68ppabX6v//7P6UdvCotlVE6nJx64oknlPYz57ZivdxmPgK0TpLb6zz51ltvKR1gXa1Zs6bBPHLBPghwnjhfnDdfJW01asgbSZwkQUAQaB4CfF8GzbIpvY4z2LOd9N00wDXpAH7VdzTuCgeS3tqJ4vdeQg5uxnmnHQejEfezpfPW0SqAvsPH6XXOT/Dt998hs/asc6fvYF1RJVBdpf/RaebAEOeyaYe+WMwTh6z6euG4GgW2jiGdUPhmDLp36IBOIT0xeeFWoFdndCpvuH5dka4sEoO7sVKmEPQ5R2+sJVscrt9cln8CDgEa99DikwriNHSgAQQtWC+77DLjsV8TO/z3v/+tHReXXzt27IjZs2cbD/e1F2p2GJJuxowZ5hqXbSXZHwHOE6MVcN44f95I9NP29ttv11YdGxuL5cuXiyFCLSKyIwg0D4GgIW+Wlak9FaEPoKpjN0y5PQprY5dj6ZIVesVyGkK7VDnJm54zkrhjLaal9/d+rP/QOc7CCTV87sSwkNqZ/bF4v3O/iuTKgfS9FajSJvUVFWXIzkjDX64YVJvX2slZcxduXTEIGQVF0Cuc2KvFd9jv1LZjHvf180oOvrVU4/TRd3t4TlIwIsDQU9SBolsJGjzQ0IHuR+g4lzE0//KXvxgrxV/96lc4ePCg0aNjRAQrURH+uuuuQ3JyMiZOnGidlm0AIMD54rxx/jiPbZX27dtnrEevueYaZGdno6rGOKtnz55t1YTUIwi0SwSCirzZU+pWc19pAtRn8iw4clZjxVbgpikDtPSsRkLW9VTMCgfu/PO/sJsSNW0k8I+Za+GYeS66detfe22nvla+8xXELM4xBgvdBl2ACE2u4je8j+pu3VD26QYMmzAVbxRakjen7Iw9qDpEetgLp/YJQ3Xhu3hg6goeoqKx+k85W1PDtXjihR0gfyvcthq3bgVum3iYHB6mfzqDpKBB4OSTTzbkja5GaPBwzz33gA6BSewYkomJBO6OO+4w0RFoDMHYmvSzeOGFFwYNDu1pIJw3zh/nkfPZWHKVxjaWj/cM3ZWQGN56663o1KlmKaCxQnJNEBAEmkageSut9sytXyJKe2dX+g+K7Tro1EuLUFlGb6xMJdJQILzGcKEiy+i6JWSXqaq9GUb/Tc+Y0SmikYClyla1N73uNaPXRoMFpYoyaRBRU0ZvI+PTtQmCVqszhhIRKrtGHa4iP0WFu+SLjnEaPlB3rrH681Ni69QflZDptn7TmVb8wzFIsjcCH3zwgdJ+t+rcD9a9N2LECKUtWO09AOmdRwhwHqkD2VB66aWXlA496PYyddi030G1ZcsWt9flpCAgCLQeAf7d7cBq9E5Ap61bt0JbmeKdd94J6HFQka24sARVWresd59QHNaA08OqLkdx0QF07NlbL7fWuaKLlaOwpAIhPUIR2q3eNVdETB06X88wdNN6a9XaRUB1l24w1TVSf3V5KYoOVBhdubDQWoU315pbvU/3JUFwK7YaB7tWwKglmqCZ7lHnjUun9IJP57t0S0Jp3BdffCGSFbtOYDP6xaVNzjX10iiFc03ffvstTjzxRBN71pLAWtcZwooOdqk7Rylb//79rUuyFQQEgTZEgO/LoCBvDLfDsDv0JC4pMBEQ8mbfeaMh0Jlnnmn0lWjIQG/3dPLKc3xBDx8+HCtWrMDFF19s30FIz5qFgHYng+joaOTk5JgwVSz8888/m/BrdPQ7btw4oxfJGLVWzNTPP//c+Izj/SBJEBAEvIcA35dBofNmGSt4DyqpWRBovwj06tXLSNYoGWWgc+0jDldddRW0fzDzAu/SpYsHxK0ca+bQQfR0bHGNNKJhLdyyxFhLz1nljDjSEqSrS3di27s7jW5mS8qzTHnOKt2POchxGnG3tJojyrnWu2O5dni95N0j8ujWsWpYByzfUermWsOnKvPWGEzphLstE4k45zU9Pb22WhqskMxR4sqYowsXLjRGKwwezzRo0CBD5GsLyI4gIAh4DYGAJ2+0huOXoK2NFbw2fVKxIOB9BEJDQ3H00Ue7bYhLZdo3nNtrR5ykzQxSsV67yzmcKvFOonFwoy2uDxvaHL7u4d6eFzFh7IutIm/OlvbgRxfrag9b9yCbs95TIv6JjCu0sdIRqRF1hyPyHj7hLHXAOPU5fLZt9jivnF8mrcNmwmv9+OOP5jgvL89I2R544AGEhYWZc/KPICAI+A6BgCdvltTt1FNP9R1q0pIgIAgYBKhnGh4e7hEaRqClPVWv/ufrqJUvlX6IZ9fWLV6+cwsWWSHZhk3HylecZM+EfJu/HOtWLTKSOkrxNuSVojxvHS4etlBXshBT568zYeVK817B/ImU9HXAxPkrkVPqZGR5GxZh/vJVWK6lgNNX7qjbcM1RZ7NtOFxddfG7Lv2bgw07Ck2JhvptNcJ6D3yeia2fOV39uNYzf/lqfKAFj5ZGacOh7IDdW1ZhopbSdRg2B398jKoiPeDsczV2rFuCYdSH6TAMC1YdDrG3k2XMeR03dM5K5HkgqeO8cn6/+eYbo8dG62IrcQmVvuEogZMkCAgCfkCABguBnLRehtI6b4E8BOm7RkDf+oJDACKgDRfUgQMHPOh5mUrQ0TnikhNVuJ7rtL3OeGp7U6JNeLdoHS7OGQ6uTMXr64hMUNk6JFt6or6OcBPlozbkW3isSs/MUHG6jIlCUrZXh26j9XSkSskqUFVFzmgm4bHJKjs7Q8WEM1+cYoyS7IQIc685ImNVSubeOv121h9uLMMbDlfnGjIuWyVG0dI7WuVXNdVvZ71Z8TrUXVymDnOSq6I4zvAY51hoha6PGSqvqqChUHY6IF5mvMkXGZesMtMTTdQWhsCjNXt+stOCPF5HUslKd1qhM9qK0lbtxDw2JUuHxtN4sN3IZGM1XgeAegecV87vcccdZ9pk/9z95syZo6qrq+uVlkNBQBDwFgJ8Dlsmq9cl7ZIoeVu2bJlduiP9EATaFQJcRuumfQx6kugTsMfgSfidjgWX8Fo+Lp17Gl57bAUi78vAOWkr8KGppCMmpqUga8QUOEKB4oPj9FnnFWcbDmS8dD/G62vnP5iAhcPS8DnuQPiUs7S/6s6YMrwfclf9QXs/jMXe+2egjy50xtPJWHbqTGTuvgv96Q47PAHvPHsLGux1ZQ6W3bkVOlwdrh/DJcEhyE9Kx8CHtuObiZ3BvzbpT96L4frS8PhsfH5wEw5WN9VvZ+/pXNGh5WSVuVuxWu9lvrwUY3RHJo3MxttrhzkzdR8OHcoOkyLGoEtlKc52hANrD4De9Xa9t1FztSQk3jvDWKO/k3UA3Ufoc1qWuTl2tfZClIU7ImgwMAZZCWkY8fibKI0crY+1T0ftc6173/FYXJSLGd/0qGvNbnLU/Yfzyvmlj7+QkJBawwXXXJTKHXvssSYqh/j3c0VG9gUB7yIQ0OSNjiLpqkD03bx7k0jtgkBDCNBliA5wDu3/raEsdc4f6tQb4TdFYfaft6J0xq/x6FZgxQtD8M16K1tHVJV8hLm9p2sCZqWImmVB0r+bca4mbkzOhVCjSKdDxekTOYdqzvXQB4vRt4NTl455mb76rhIn6yocU0c3TNyY0VTGncN/Hp3h6j5A0c+aJCIGQyw1ry4OLH1WrwXrlnc02G/WVTdV14SeG2AxyI79MVVXw9HUhrKbvvVwofBZ6KQXhLM3btX9X3a4Z52cC6Yo/wzpGrCtd45AhzsPF0P4VKDb2bg/PgqTZ441xBPhkUiM/RtI8RpLnFfO78MPP9xYNrkmCAgCfkAgoHXeLH03WkVJEgQEAd8jQFchdCXiaarUalN9JjHSyON4eOky5DjiMTqsO0wAEF1J9e5NGDF7MSLTclFWoaCX/BCuKQ1pm6ep6tAezdDiUaT9lZWVVaCipADpaRm4bpjFlJquiSTKXbi63r+w7CfYbxk1VO7EqiWr8PkXzey3sc3IOVwPvq3VeWs4lF1HdNa8NOcnU9gMoqMVsKBLGE7UZ6KSc7VLlwqNXQWKcjORFhuOkPIS9Jn2oNZLqECBPpc4dg/mTXgMO60xmJqO/IfzKr7ajsRFzggCdkAgoMkbJW8idbPDbSR9aK8InH/++aCTbM+TZgzdRuOuCL00uSwVkXdNMVIwyztH9UGnJv3pZ5yMbh2LkRo7F6z94AErx5EtGWJn+Mw32FNaiVPOnaQZzpN4PbdUL+kC7z97AyZP/T84zQSOLF//zCGXkHH1w9Wd2P9cvdiZin/pkHGVWhK2bfXNuHXxB6j+qel+uxLQbi6h5yq11C5n3T/0MqozNRjKTpszXKClllh8uzHUQOVurPnbrbqQZnQdT8U0fWl1bCoKKrugW/VXeGzoWExd+5Vea92EoQN7I1WztX5DxmDShLE1LTW+4bxyfiUJAoKADRHwlkKdt+vVuhZKfxWq3Nxcbzcl9fsAAf1o+KAVaaKtEXjttdeUdsrqQbU1BgtaIZ+pICVGK787agwX9LVwy2Bhr4qnIUKNcnx4VIyK1IYOQJz6Olsr6zvilYk0p+uwQsBl6RBwFfnJNWXiVImqUGlxTsMEZz0OlZhFcwVtsBAfrhxxztBy5oTLP1Z9DCnXWLi6grS42v6x/vj0Al1LY/2m8YAzVJ1r+3VDz2lDBl0XQ+U1FspOB8RTSVHOvMzviOQ4IxUx0ICoGINVDX7asCOX53UZp2HFYVxjknN5odHEeeX8ShIEBAF7IcBnP2AjLKSmppogyq+88ooeh6RAR0AiLATmDNJhq8PhaOMIC9UoLS5CdceeMOHYqrWMSxsEdKsfFq4+ZDpfpdYG66LDdzFVlhajRAv6eoaGOUPA1c/f5HEj4ep0SLrisip01z7wDner+f2uLi/Woed0H/voPrr2p7FQdjpfaXGhxqeHxqf+UrDVhyOvlesyOsqdDo+nQ+w1FkZP1+8uwoJr92RfEBAE/IcA35cBS94Yy7Rz587461//6j8EpeU2Q0DIW5tB6ZWKGMeSHvbHjh0Lhsjq1MlStgI2bdpkoi5kZWXVOe+VjkilXkegsdimXm9cGhAEBIEmEeD7MmB13ixjhSZHKRkEAUGg1QjQVcTIkSNNWCxalt54440mNBYlbwxezuD0JHeSAh8BziPns35Q+sAfmYxAEAgeBAJS8padnY1rrrkGmZmZYOgeSYGPgEjeAmMOGdP03//+t4lv2bVrVyNpYxglvuhJ6B555BFD8AJjNNLL+gi89NJLuPvuu/H+++/j+OOPr39ZjgUBQcAGCATssun/+3//zziFfPrpp20Ao3ShLRAQ8tYWKHq/DjplZUD6H374obaxjlrHTHvYR79+/YzfxRdeeAHisLUWnoDZeeuttzBr1iy8+uqrOOeccwKm39JRQaC9IcD35WEvlDYY/ZtvvomPPvoI33//PXRIFvMHZOLEiUf0jCL9008//YjzckIQEARaj8CePXvw9ddfm9/u3btr93mOx0cddZTRNz2kPfYzHXPMMWBs4eeff97Eupw5cybWr18Pd89u63snNXgDAf7tJXHjvAlx8wbCUqcg0LYI2GLZdMWKFXj00UfRt29fjBo1Cr169cL+/fuN6H7v3r246667oGOYtu3IpTZbISCSN99NB58td6TMImxUWD/llFPMj9I0a59bHk+dOhUffvihCfpOXbjbb78dDz74oCF0HEVGRoZRa4iLi8MNN9zgu4FJSy1CgCsYCxcuBCWmEyZMaFEdUkgQEAR8h4Dfl0251DJjxgztEbzKWI2SuNVP1L2gRSmt2zZs2AAu0UgKPgSEvLXdnDIepUXE3JG0oqIiQ8LqkzLX44aeM0rlmI+krXfv3khOTjYfXPV7n5eXhyuvvBIXXHCBcSPCMEuS7IUA7xN+FG/fvh0bN240y+H26qH0RhAQBNwh4HfyRiVnfsmvXLnSXf/qnLvjjjuMtIBuCSQFHwJC3jyfU1p4uiNlroSNyuaWpMyVlFmSNE+DydfvFaXgjz32GP7whz9g+fLlaCw0HWNjLliwAFySW7VqFS666KL61cmxnxB44403cMstt5ilbc5nS+8HP3VfmhUE2jUCfiVvXCqlI8jNmzd7PAnTpk3DxRdfLEuoHiMWOBmFvNWdq2+//fYInTNXwnb00UcfsZxpkTQSNG9ZCs6ePRs333xzs/TZtJd+3HbbbRgxYgS4lHraaafVHawc+QyBr776yiyR0iff448/jilTpvisbWlIEBAE2gYBv5I3vmBefPFFt0suDQ2PS6hXX321kTo0lEfOByYC7Y280VrTVVJm7XNLknbgwIEjJGeW1Mwiab6eaR0gBnTWSxchzU2VlZVGr5UfbSSAMTExZtm1ufVI/pYhwKXyZcuWISkpyUhDKRFtTGraslaklCBwGAH+vSguLgb11vkrLCwEP0opkeeS/cGDB82W+w0d8+8G71P+zaHqhfVr6JgS5BNOOAF9+vQxOvTUow8LCzP6uYd7Fvh7fiNvXEZhhAT6aWtuoof3pUuXNuvLv7ltSH7fIxBs5I2WmK6SMouUuZI0/mFpbGkzGF+uJBEPPfQQnnnmGfz2t781PsWIgyTvIMCXJn3vWXjfd999Qpq9A3W7rZWE7PPPP8cXX3xRZ7tz505Dtvh8W2TqpJNOMkv0Fgnj1pWI1d/n30ASOFei19A+CSCJ4b59+2rJIu9/5qd3ikGDBuGMM86osyXRC8TkN/LGr+8vv/zSI123+sBS940TIdan9ZEJ7ONAJG/8w+COlFmkjX+YLCmZO5LWnh1M8yucFuaJiYm4/PLLjTRIXFS03TNMl0vUZXv55Zcxb948Y7HPF6gkQaA1CFheIN577z3wx9Uw6uAOHjzYECNXcjRw4EBD3lrTXluUJanLz8+vQy5JND/77DPj9oiGkqNHjzY/y9tFW7TrzTr8Rt5oPcrGWxJO54EHHgDFsaxDUvAgYEfyxj9UrpIyi5RZhI3SNXekzFre5FempMYRKC0tNcYMf//7380f/6ioKKMaEYxSx8aRaP1VSiioirJ69WrzoqJRCY0S2vNHQutRbd817Nq1C9u2bTMWydxSqjV8+PA6ZId/AwM18W85CahFRnfs2AH+3R4/fryxlOe2f//+thue38ibSN5sdy/4vUP+IG8Up1tEzCJprgSNywENSc4sgtaQSw2/AxpgHSARTklJwVNPPWX+kNI4ifqtl1xyiXFLEmDD8Vl3qYPIiAgkbTT+ogThpptuwvTp02v97vmsM9JQwCPAj6ktW7aARkb8/fTTT4bIkMTw53A4jLQq4AfawAAoRczJyTGElWSVPzohp2EPf5MmTbLFx5DfyJvovDVw57Tj094gb3wQ3ZEyV8LWs2fPOj7PLFJmkTYGYZfkWwS4pEqXQIyzya/icePGGRLHP55Dhw71bWds2Fpubq55sZK0vf3228boizFn6XpJlkZtOGE275I8b41PkB2fN7+RN0LFl6RYmzZ+07Snqy0lb1SAd5WWue6TpLHexpY2aYkkyb4IiCQgMCQB9r2DpGfuEBBJtztUmj5nF0m3X8mb+Hlr+kZpTzkaIm90meEqKasvSaPLDUtK1hBJa084BvtYRQfHnjo4wX7fBcv4RMe07WbSnzqmfiVvhFAiLLTdjRSoNfELkISMlkl0Z+AqObP2uRRUfznT9ZihmiS1TwTE+q19zruMunkIiHV38/Bqbm5fW3f7nbxJbNPm3iKBmZ9/OCwi5k6KRvJFiQqdt7qSMmtfrOUCc9791WvxO+Uv5KVduyEgfhV9OyO+8qvod/JmwcolVPp8ojM/+lmhtQetWqisTDAYT1H8ullo2W9bUlLi1jDAImwUL1tEzFridD2mZK2hZVP7jVZ6FKgIiMf3QJ056XdzEeDfXPr5408imjQXvdbn93ZEE9uQNwsqWqFS/MjQLbzp6LRz4sSJ1mXZ+gkBy6VGfX0z65i+fxrSN7PIWqdOnRrtvZC3RuGRi4KAICAIeISAxBL2CCafZPJWLGHbkTcLTXmRW0j4ZkuJhLvlTEtyxmtcurSImKvUzCJtrXWpIXPum7mWVgQBQSA4EWBoKAo+KARZtWoVLrroouAcaACO6o033jAOsymMomCKMVhbk4S8tQa9ACtLMa4lKXMlZRZp43DckTKLsPXu3durIxby5lV4pXJBQBAIYgTy8vJw5ZVXmqgAVENiaD5J9kKAYbqo/rV9+3Zs3LgRQ4YMaXEHhby1GDr7FSwrK6tjFGCRMouw0UTcImINkTTeEP5KQt78hby0KwgIAoGMQEZGBq655hrExcXhhhtuCOShtIu+P/3001i4cCFeeOEFTJgwoUVj9ip5Y+xRxiH1dWK81GCMe1pVVdXk0iZjslkEzVrOtI5J2OzsUkPIm6+fFGlPEBAEAh0BLpHOmjUL69evF/3wAJrM1s6bV8lba3Bsry9yutSwJGXuljYZrNsdKbMIGkM9BWpqr3MeqPMl/RYEBAH/IkDjPsb+JXG78MIL/dsZab3ZCLz11luGeDPMHY0zm5OEvDUHrTbIy6VLd6TMImwMvWERMXdLm8Ect1DIWxvcYFKFICAItAsEvvvuO+NW65FHHgHj2koKTAQYv/nuu+82btGOP/54jwch5M1jqDzLSPJlETF3JI2SNXekzCJs3Hbu3NmzxoIsl5C3IJtQGY4gIAh4DQEaJwwdOhRLly71WhtSsW8QWLRoEXJzc40Rg6ctCnnzFCmXfK6kzHWfpI3Hxx133BFLmyRlFmnr0aOHS22yayEg5M1CQraCgCAgCDSMwKZNm7B48WJkZWWhKf+ZDdciV+yCAPXZR4wYgdjYWBMy1JN+CXlzg1JxcXGjS5v0ieYqKbNImUXQvO1Sw02Xg+KUkLegmEYZhCAgCHgRgV9++cVEH6I7kIsvvtiLLUnVvkTg9ddfN25EGF3qqKOOarJpvi87NpkryDLQpUZjS5sM9WQRMYuknXvuuXUImyfgBhlsMhxBQBAQBAQBPyOQnp4OGq7ZnbhV5q1DyNDZ9dAKR2Lm05g7pl+983LI+eS8cn49ndugI28///wzCgoKagmatZxpETZuTzjhhDoEbfz48XWOu3btKneTICAICAKCgCBgKwQ2bNiAyMhIW/XJXWeqqw7o0w4kZ23E6GOBqqqD+G/ynzF77A0YUvImxoS6K9W+z3FeOb+ekrem5XMBhidDT0yePBn3338/0tLS8MMPPxgx8/z580HneF988YVRDmT8tyeffBL0C3fjjTcawAYPHgwhbgE24dJdQUAQEATaCQLvvPMOwsPDA2S0/TF42AD0GzAAA4Y4cP0Ns3S/t+L7impQMjd9/jqU14zE9bi6+F0smT4MRq+rw3Rs2FFck6sUqcvn15wfhkVrtqGSV6oLsW7JnJrzHTBnyQZYJfI2LML85auwfE4HTF+5o6Yee244r5xfT1PQSd5uu+023HPPPZ6OX/IJAoKAICAICAIBgcCuXbswcODAgOgrsAtv/mcLvtdhPKsOfYOX4/Qyang8RvTpiOpvvkPqan3+CedQqg9ax5VIvXksFvdIQG7Bxfj86ZsxfcRkZFVk49DKqzB94X4kZWbj9D2bMHbmBPQbUYZxb8/G7MU9kJKVi0GHPsbCsTPx2Li9WDqpD6q++wSrFy6DIzIWD44+0da4cV45v56moCNvIjnzdOolnyAgCAgCgkAgIcD4mK0Nau678ebgzj9H68VTphxoXXydduHr0moM6sR9oGZTu9MJ1ThA/jK2CxDSFxH3v4Tsi/fg5Ooc3LFwK2LS9uL6MX10hjOQErsHJVUVOHGcXmXLcuDS4aEoLwVG6gaT/7fbkDdAL9+GJ+CdZ29B60LBs7feTZxXzq+nKeiWTT0duOQTBAQBQUAQEAQCCQEGnC8vtxYb7d7zcGS9l43sbP4UVEkWorACd6/PPaLjh6VI3XD16kSEr56Hob1D9FLohXjuQy6CVmGP/vfE3parrS6a2D2BucPDtNVlOTbO7a3zdkL3nkOxWJPE/l2c/lKrDmnNu6mjbU/cCAjnlfPraRLy5ilSkk8QEAQEAUFAEPAjAv3790d+fr4fe9CKpkPPxNhwYP8BS7pUqSmZM5UVf0P7Bp3KceC48XhZ+z4r2ZuL9KSZWHbrZKz/5KAzY62orhrbVi1Hat4ePDt7OjIvS8HekgooVYHEcCNvc+YPoH85r5xfT1PQkbdPP/0U27dvb5b40VOwJJ8gIAgIAoKAIOAvBM4//3xs3brVX803s939yHs/B3l6vTQnZwc2rLwT83TXZ44cQEGaTguRoo0RqkvfxV2TlwG9KC37FsuHDsTsJ7MR2mcIJlw8zsnpug7EDRHQy7D/wu7KahTvWIsJty7EVzXsr/+gk9E7tCN2bllt2kClFrkFWOK8cn49TtrprO2S7nyL+/T888+r8847Tw0aNEhde+21Ki4uTmnLUqVjwbW4TinofQRaM+fe7520IAgIAoKA/xHgu2z48OH+70gTPajITVT8m17351BxKdmqypTdqxIiD1/XhpZK66apMn0tNzmmTjlHVJIq0eerijJVlEudEbEpJn9WYvTh/I5IFRsdro/DVaauLDs+XDnisprorT0uc145v54k4tqBGfWOrVJbeNv/+OOP8cEHH2DHjh1mSysOOtvVAJkt908++WRbjbs9d6Yt5rw94ydjFwQEgeBHILgiLFSjtFhbGISEIrTbYa03zmK1tjwoOlChDRl6oE+Yq6lBpS5TdkSZytJilFV3RGhYqNaBq9b6Y5Xoog0A6tZq3/ujJREWgpa81Z8mrie7kjnuk8C5ErrAMcGuP7rAPxbyFvhzKCMQBAQB7yMgsU29j7EvW5DYps1Ee8+ePYbMuRI6Kgu6krmzzz67mbVK9pYiIOStpchJOUFAEGhvCFx55ZUYOnQoli5d2t6GHnTjXbRokQkcsHHjRo/Hxvdlu5G8NYXK/v37a5dYLUIXGhp6hHTu6KOPbqoqud4CBIS8tQA0KSIICALtEgGtw41Ro0bhkUcewVVXXdUuMQiGQb/00ku4++678f777+P444/3eEhC3hqBis7yLH05i8wxu6vOHPeb45elkeba/SUhb+3+FhAABAFBoBkIfPTRR7jkkkuwfv16XHjhhc0oKVntgMBbb72FWbNm4dVXX8U555zTrC7Zkrx98skn4HIlt2eeeWazBuTNzAx4b5E4bvkrLS2ts8xKMterVy9vdiNo6xbyFrRTKwMTBAQBLyHw5ptvGgJAAjdx4kQvtSLVtjUCrZ0325E3Sru0mw+EhYWhqKgI7733nq0lW2LR2na3tJC3tsNSahIEBIHARqC4uBjff/89Dh486PbHd2VJSQmuueYa867kVrvFwg033BDYA28HvX/66aexcOFCvPDCC5gwYUKLRmw78jZv3jwzkMTERLjut2h0fihkWbS6SujEotWziRDy5hlOkksQEASCHwE6mx83bpwhcCEhITjmmGPo/NT86C7ECpFFS8WOHTsiLy8PNGK44IILsGLFClsLPYJ/9tyPkIQ7OjraBBGgccKQIUPcZ/TgrK3I25o1a/Dwww/XStssKdw999yDuXPnejAc+2VpzKLVsmoVi1bnvAl5s9/9Kz0SBAQB/yFAYrZ48WKsXLkSFRUM/XTYJWvXrl2RlZVVhwCQ0C1YsABcklu1ahUuuugi/3VeWq6DwBtvvIFbbrnFLG0/9thjYBD61iTbkDd+ZYRrF8u86c4666zaMTV0vjZDgO24s2g97rjjao0gLGOI9mjRKuQtwG5m6a4gIAj4BIH//ve/mDZtGvj+YKKR3JIlSwxRc9cB7aUft912G0aMGGGWUk877TR32eScDxD46quvzBIpifbjjz+OKVOmtEmrtiBvTUnY6kvk2mTkNqmEY3ddYuU+v64sEmdJ59qDRauQN5vclNINQUAQsAUCFGb873//MytP9OfG5VAukY4cORLvvPMO+DezoVRZWYlHH33UlJk9ezZiYmLQu3fvhrLL+TZGgDr7y5YtQ1JSkiHZlIh26dKlzVqxBXnzRLfNkzxthoofK/LEopWErjn+YPw4nGY1LeStWXBJZkFAEAhSBEi8EhIS8OSTT+L666/H73//e3Cp7YEHHjDLbVyROuWUUzwaPUnEQw89hGeeeQa//e1vjU+xvn37elRWMjUfgb179xrfexbe9913n1dIs9/Jm6dStaakc82HOHBKNGTRaknluA2GGK1C3gLnnpSeCgKCQNsjQNJmSWe2bt2KY4891riiYktcJqX+Gy0VScKamwoLC40kjsaAl19+uZEGNde3WHPbbE/56XOPBPvll182xpZ33XUX+vTp4zUI/EreLH023qSe+HOz8tfXi/MaOjatOFgtWoW82fSGk24JAoKAVxH44YcfsG7dOuM3lKGS3KUHH3zQGCHQCK41ib5Jaczw97//HWeccQaioqJw9dVX15LG1tTd3sqSbL/44otYvXo1vvjiC/zhD38wRgmMzOTt5Dfy1lJJmqeSOm8DZ6f6Kaa1IkFYWytGqyWdCwSLViFvdrqrpC+CgCDgCwQoEaOUhpalkZGRxt2Hu3bT0tJMOKy2Upk5dOgQUlJS8NRTTxkPDzSIIIljxAa6JpHkHgFa/TIiAknb5s2bMXr0aNx0002YPn06Onfu7L6QF876jby1RoetNWW9gKHtqmzKotUidHazaBXyZrtbSTokCAgCXkKAznfp7oOJxgc0UrOWTL3UZIPVkkBu2rQJjLPJGJv0L0cSR8vIoUOHNliuvVzIzc0FLXhJ2t5++21DohlP9oorrvDq0mhj+PqFvLVWetZSqV1jQATztUCxaBXyFsx3oYxNEBAEiADdftACkashXLK0W+Ky6pYtWwxZIWH56aefMH78+Nqfw+HAUUcdZbdut1l/6AA5JycH27Ztq/3RQTKJLH+TJk2CL5ZFmxqQz8lbW+mttVU9TQEUjNcti1ZXFyX1Y7RSOtdW4nlPMRTy5ilSkk8QEAQCEQESN7rtuPbaa41S+4ABA2w/jF27dhkSs337drPdt2+fkRJyuZC/UaNGeWz5asfBfv3110bayFCc/FH16KSTTjJkldEqSFyphmS35FPy1tYSs9ZK8Ow2Gf7sjx0sWoW8+fMOkLYFAUHAGwgcOHAA3bt3Nz7ZuFRKp62eGOh5oy9tUSfVcri0apEd7lNaNXjwYGMAQSOIQYMGmf2BAwfaIkwXuQcN/WhU8Pnnn5st9z/77DMjRSQBdSWjvXr1aguovFqHT8mbN3TVvFGnVxEPkMobs2i1dOb4YLZlEvLWlmhKXYKAIOBPBGiAwOVRWpHef//9RoLjz/54s+1vv/22lhRZ5IjbnTt3GvJGv3J0m8EtpVoMDUXH89aPun8N7VMPkFadJL4kYfw1tM9rDBFG6SAN+ajLxy3zn3766bWk0iKX3J5wwgnehMZrdfuMvHlLSsbJOu+88xDI8U+9NrttWLGrRau13NrWFq1C3tpwwqQqQUAQ8CsCdNL6/PPPGye7XCrl37f2lhgtqLi42BAoi0yR6JFg1SdhDR1bvu9cCR6JXkPHJIYkZBZZJGEMCwsLOvx9Qt68rZ/m7frb2wPnyXgpOrdInLV1jdFqSeeaY9Eq5M0T5CWPICAI2BUB6odZ+lEkLXQdQUe7kgSBtkbA6+TNV5Ixb0n22hrwYK2P82yROG7541eXReK45Y9fRQ0lIW8NISPnBQFBQBAQBASBwwh4nbz5UifNl20dhlD23CHQEotWIW/ukJRzgoAgIAgIAoJAXQS8St58LQ3zlZSvLoRy5CkClkWrJaHjEoMlkaODyoiICCOt87Q+yScICAKCgCAgCLRHBEjeOnpr4FzzT05ONlYk3mrDtV4qMa5fvx7/+c9/XE/Lvk0QoFNK/ubMmWN65GrR+s9//tOcu/TSS+sQura2aLUJFNINQUAQEAQEAUGgVQh00LpJqlU1SGFBoA0Q4JdEamqq0ZezpHOnnXaacQhpSejo3VuSICAICAKCgCDQnhHw6rJpewZWxt58BHgzun5H1LdoJaGj5RaXWC0yx/3mWLQ2v1dSQhAQBAQBQUAQsBcCQt7sNR/tujf1yVt9MNrCorV+nXIsCAgCwYHAjuUdMOKnTKj7xzRrQDkrJ+IOPII37xjuUbnyHSvRfW5nlGXfgoZt5z2qSjIJAi1GgO9Lr+m8tbhXUlAQcIMAdRoZa44/pvoWrfRkbsVopWTOktD5Okarm67LKUFAEPAyAv2vzkJ2p0HNbqVKl9hf6XmxLl07AzmHPC8gOQUBLyEg5M1LwEq13kWAy6UjR440P6slV4vWv/3tb6hv0UpSd/LJJ1vZZSsIeIwAl/TFW7zHcLVtxspivPvv55CBKbh3xhCXuiux891/Y93rnTF96EdIwbFw9N6DRbMWouL0HlixYq3OG4X0gnhM6tcFu7etwg0TbsVWfTY8OhFPPzxX79WkyhwsmPoc5qctxZAuwM4Ni7C8/Do8MddxuJwjAjGTD+jCs5yFyvOw/NZrsHBtDitE2pNLcEHVFjz+bjdEzpiAPt1cX6/lSF35L3SbOAMTHH1EamLhLtsWI+B6d7W4EikoCNgBgfoWrYytt2PHDmMEQYtW6s1Z+nKWdE4sWu0wc/bpQ3PjNDKIdb9+/RqMzegas7ElcRoZ+NsKLRSscRrdz34ldue8g+f/sQQLV28FHFFIXnOdyVq6Owdpz/8Dsxeu1sfhiE1+BD8V/hmLKy/G/eiMT7Th066YFBSV/A2b7zgVk1dFQv2+FKdq4haXXoC0c39ATM9h+MOo8fhLbeNVSN/6b8yqXmrO/FD4b2RWRqB69wZTLj49Fy8MOYjHLh0B9CJ5K8bK84ciLTIdZVXnY9emGAwbeDc+K5yHfU+PRd95usuRMXjw9pswacwAvcTaBb17fIOxw/rqsg7EJDyIm66ehAFhsvhaOwWy0ywEhLw1Cy7JHEgIDBgwAPzNnDnTdNs1Rutzzz2HP/7xjxCL1kCa0bbtK41iSI7ee+898+P+L7/8gsGDB+OMM84wv+uuu85sSfJJxFqbLDLHeIstSdT9pJudL774wgQD37ZtG/71r3/hs88+w1FHHYVRo0Zh9OjR5sd9ksvAStXYsW4Z5s5ejBxHJOLvux8FD6ahX1gXFL+7DnOGzcbanHDExP8OWQUPYng/J447VvbSlEgvaep0QBO61YsjoItgxoI4zBvxAd47+33NmRJw26R+mkYBy4rysbfqBPywwRQx//SCK1bc74zCD9/W/DBRlxtipGV//GcMlt2ul03Lv8bGHODXPUrwyqZ/62NWsRrZVf/EY28qPFxaiMxtqVgbMxDTtzoQHfcgFt21FGpuLArzMpGavBYDe0+HIyIai/+yCDOGt+x+MB2Xf9olAkLe2uW0t89BM0gxf5dffrkBwNWiNS0tDUuXLj3CopUSuo4d5TEJhjuGy+gkO9u3bzfbffv2Gd1Ikp0bb7wRCQkJOOWUU2w9VJK/c845x/zqd/Trr7+uJaPLly83UueTTjoJ48ePN7qi3FqxN+uXtc9xJfLSNHHTHYq8eSamXTzaEDf2b3/eW5q48cKViJh2MYbVEDdeOyJV15zpRKoGdDyklzt7daldruwY0gMh+uiHmmzWpnPNo96JPFDrwn2Xlw6cPM66jE6/Ok7rvOnDmnwhrP6QJnPdxiEpcRzO7u7M2jG0D0aN/w1+LInG6q0rsGLhZtx4hyaU+m9JnyGj8JsrfkR08mqsSF2B16+8UchbLcKy4ykC8lbyFCnJF3QIUCpx0UUXmR8HZ1m0cnk1MzMTjz/+eLNjtAYdSAE8IBqwbNmyBa+99pr5/fTTT4bIkMTcfvvtoN9ASquCJZF48nfVVVeZIVGKmJOTY4jq5s2bcd999+GYY47BlClTzG/SpEkIDQ212fC74fpnFab+bQdSnn7CSKe4NBqXdD+unfFPVEz/E7amPI2ogb0Nh4qOS8KN105tcgz9xug88zbiw+JIjAkrwrLuffG/pPzDy6bVh7Bfa8N9ubcSw/t+hedu3Ype8UD/CyKBhc8i89ErMD6sDKlPLNTdSdDkrStO1q0eN+B8zBjfB+U5a9B9WDqyyy7EuxtexD9jbzVEMyI6Hpn5RRg5IAylO7dh1VOrceuytbpkBOKTM1F06UiE1dGNa3IokkEQcCJAJ73OVKISdIQiIFrlVlnnjtxW5CbqPBEqq+zIaw2dyYpzKMRmNnTZnC/LitP1xqmSRnJVleSrjMx81Uj3Gil9+FJ2QrhyxGUdPiF7fkdA343gv931AAAd/0lEQVR+70P9DmiLVqWX0tTq1avVLbfcos477zw1aNAgNWvWLPXQQw8pTQqUVmKvX0yO/YiAXhpXWr9RTZ48WfXo0UNNnTpVrVixQn366ad+7JV9miYOxIO4EB/iRLyImy1TVZnKzUhW0eHQf7Nd3yFVam9uhoqPDldwxKvt8eEqPF7/Ta/IUuEu76ey7Hh9PUGV6f/S4iL0O4bvOP2LiFMF+kWSbZXTb57kGP2eqrkeGelQEaxPVai0WN2GVc6UTdS1KVWUyXdhTX16q/XplPM9FqmS0rNUSYUroiUq3gEVGZuksgoae8u5lpF9QcA9ArzvaiMsVO9ORadTp+tzmkJlFuHeMe7X4Kvz1qDT0KeRWfYmxnioa1mctw15VUMw3uG+TrZZXZqHjA+ACTW6BTxXP1XnLEenYUCFutfoLdS/7ulx3qqJuObAI8i+d7inRSSflxFoys+bl5v3uHpXi1YaQ3z55Ze1bkksIwixaPUYzjbJeEgvW6WkpOCpp54yumvTpk3D1VdfjUsuuQQhISFt0kYwVlJRUYFXX30VL774IiiZ4/LxTTfdhOnTp6NzZ6f+WLCNu7K8FBVVnbTE0f3Lq1xLaxHSHd261F2UKi8tRgW6IyzUuQxbi0tlOYrLKhASGgYRoNWiIjteRoDvy1pxR2ac/rqIjFPxUfpLIiq5jnSrID1BheuvBm0+o6Kj+HXilLzlJseoqNgEFWfOQUXHp6j05DilgxiZPEnZzi+M/JQ4FZucq1RVvoqNjFTxifEqkvXpfNGJmaativwUFR2bYr5oqooyVWyE9RUUoZKzilRZbpL+onKWCY9KUsX5ySoyOkElJ0bX9ic7Jb42jyMiRmXutWR0JSolLtK0Fx4ZY77izFeaJrVVRVl12krMdH6BVrip3z0HlrNtgQDvhUBMWnlcvfDCCyomJkbp2Kyqd+/eSpMGpZeolI61q7RieSAOKyD6XFJSorSeotJ6XWrChAlq7dq1ShOSgOi73TpJ3IgfcSSexJX4ShIEBAH7IcD3pfONqUlVlD6IyShRZZlcvgxXmTXLoiWZWuysr0XGJavM9MRaYsZl0+wEpxg6KiFNpSfFmnxam1Qlp2eohGhduRZn8/HPitdEjCLvsiwVwUb1LyEtQ6UlRJn9xNyKGnEz81eoJC7fRiao3IJ8lRIbrvM4VFbxXpUWz/yRKiWrQJVmJ5iyJJLxSemqcGeSOY5OylAF+VkqXluHIyJR11al0o043FGnzYgEisQLVAz7o0XoWfolnBbvJHhJuVrIXq/+IosH2m8eg6JHgUre6oO/Z88e9fLLL6sHHnhAXXHFFUq7kTAvxOjoaPX000+r7Ozs+kXkuJkIcInv7rvvVj179lQ33HCD+vDDD5tZg2RvDAHiSVyJL3G27ZJqY4OQa4JAECNQS95KDGHT0jR+tGqdARKs6JQCM/QsrROAiKRaSVxZFslcuNF5o74AolKcEFVlm3KxmgAyVeWSXDnzsQ6jY1ZTd0x6jX5FVa4pE5+lSSN1ExBvdBMSKJWLSlS5RexQicrOzFYlmjxV5Oo8Wn+BZ53kyqHSaz4Oq0pyVUpKplNyV1Gi0ilJNOTRSdBi0ovYLZPSNLF0aH0Gqw6LqLIt6iWwr9Y1q36rrGy9g0CwkLf66Hz33Xfq9ddfV3Fxceraa69V2g2F0stTav78+eqJJ55Q2k2FqqqSL4P6uLk71j7Y1IIFC5Q2NDFbEmVJ3kOA+LriTfwlCQKCgP8R4PtSm1pVY9t6Wr+kYkRIB3QIGaH3gBVP/Ue7rilH9satcIw73bKMBowNtc6gE0OLOM6izY1O1VXavw5w7K86mcNKXnSTmOfEsB7OKx1PxlS9xlo3Okk3XL06EeGr52Fo7xB06HAhnvuw2Jhm6yZMaJLq2np74Thnc+gY0gmFb8agu14L7hTSE5P/f3tnAxxVee7xPzbBBAOaQNAGFaOABLtIQayIygKDNqMT/Li0Y4m9dNRcwZkSmI5M7AWn8VaajmLCVKOojb2649wGwVAVaw3GiDdUG6obvQFMilETNSmkQyIbSdpzn+fdzwSWLCGbzZ7835lkz57znvfj92ySf97zPs+zrkpcw0cjsfPvqAnU9x5MutTp61TTnOTi0sD2h2RkXC6nAtsagu177+R3Ejg1An6P1vvuuw8aW662thaPPPIILrvsMuPRevfdd2POnDlYsWIFNm/ebDwDOztN0KhT68jGtbu6ukwYFw3CLL82IZvusWnTJhP2xcbTjvnUNKyOclbeyl35b9y4EWqP4VT+/Oc/Y968eZB/iCCrhsNpaBwLCUSNQAI6/4JHi+tQUF6NH196jgiyRHy9/78xb9lK7G7JxWjRWXXfBJVYgk8sBUZ03M9xsG6gTt+D7mAdlU+9SyeOnHMt/iB1uiWQ4l+ryrF4+WJcOL9DZFb4UvfsWqwsnobqpt9jnsT/aX1tDSbdF2z9vPTgxuWv2w4BZ0pbZhh1+ErUYKpvf+rfP5fzc8P3wyskcDoENE5XaI5WDefgzwKhIUqYo7U3XQ3zsWrVKiNwNZiuBlVmGVoCso8Tjz76KFavXo1169YZEadhdDTkSKyKikmzaVsGoOFRxPsbCxYsiNVw2C8JDDmBMxpfK5PoNnm48+ZrMV3iHjkc03HVzT+WM0Dp6wdxzZ1ytOFebN0nXjhdn+LZX66UK76VswiGG5RPEVQ2Vb7Cr7OmYPnTbqRmTMd1S+ZL5GxfMWLrS3zeHlSM/va7NQijRMienJGOnpY9+EV2sb6FJyUTP3QCq//zt2iU2zobX0PBhjqN14iUC74jbT+PJ3+/V9YfgZa3JQZPFbBq4TR55y3+9v3v+UoCg0lA44xpjlZdgdM/iHv27DHef+oxqamaNEfr7NmzIfvnIPvosENS/8jjrMEcwrBsS1cflYkKtyeeeALi/EHhFmNLqXBWO6g91C5qn1isEr/88stmlU0zYmjJyMigcIvxZ4PdDz2BM95+bAschbm4xLfyZIaQMB0/LHRgx+/ewdic/4JL9NuyrDR5pDoZj0twQSPepH7fRbjjJd35OKdXvUQT2DB0mqPlTZK/JaPSLsGa8gLsWDnH/GeVOHGx5BZ24YeOFCScnSG1NyIrbTP+YRoZh7N8455x4xoJ5bgRkxNHIXnSPIwpkEFXrcbizQdxl6sSuTtWY4o8Fh47JRtVcu847Th9EbZXFKJ4+RwkjhqFSdetRl5pDe6Svrwl2L7vBF9IIOoE9PHUHXfcYR5ZVVVV4c0338Ty5cuhQWY1C4A+ZtUwGOLhCvF0NemSoj6oIexg3759Js2TdvnBBx8EgigP4RDY1UkIaGBrtYsWTcGl9hqqIk4/5p+YGTNmmDRmQ9Uv+yGB4UYgEOetv4G1t7WgJ2GcxLnxC5v+7ji96z0Sj6f1iEcU4jhkhCbv7emSPXIJSDpRyqIeibnTKjF30iTmjqys9ch/7z1JkhJYBZ65dgQJaROR2ieGj78v3St3XByf05sG746QQLzEeYtwOlGtJt5/0EesoY9bJ0+e3CvenGYPiMdSXV2NH/zgBxAHD4jHYzxOYUSNWcWUPkrVfyIkzEhU5q5p7Pw5WjWvq/6u0JzFLCQwUgnoz0DE4m2kQuK8h4YAxdvAOftztIYKurPPPhv+oMH6Gg85WnWFUbJXmEdzCxcuHDgQ3jmkBKJlt5aWFrMHVP9J0T1355577pDOi52RwHAlQPE2XC0zAsdF8TZ4Rg/N0epfndMN3n4Rp3vo9DglZWhW0SOZmT6G00fBuqeKG88jITa86rz11ltGeGvGhssvV5f90yu6l+7nP/85ND/tj370I0gA7NNrkHeTgI0IULzZyJjxPhWKt+hZsK9Hqwo6iZ4feMzqF3MTJkyI3iBO0rLEwjN7pzSEij+p+kmq89IwJbBt2zZIUF+oI8FAP0u62qYOCFr0EemUKVOG6Ww5LBKIHQGKt9ixZ899CFC89QES5bcfffRRrz1zjY2NATGnq3Iq6E43R+s///lPfOtb3+p3JrfccguysrJMLLd+K7PCsCZw//33o76+Htu3bz+lce7atQsulwuSmss4JETyuTmlDliZBGxEgOLNRsaM96lQvMXWgireQvfM6ercrFmzegm6qVOnntIgd+/ejf3795tk5+FufOmll7BhwwYTvDgxsa//eri7eH64EpBsIcYburCw0IS3iWScf/vb30zYEfVi1Uek6nzDQgIkEJ4AxVt4NrwyxAQo3oYYeD/dhfNo9a/K6Wt/Hq2690731eXl5ZkQJxrTLrTo41xto7i4GEuWLAm9FPZYPcPbPT1ISEhG6hB5vocdzLC/0IP2NonPOTZdPOyHbrCSDg6Syxd1dXXoa3P/KDRWYYJEDDjvvPPMqS+++MKsuvmv85UESCA8Af172fu3afi6vEICJDCCCGhqpJtuusmsiukjME3rtX79epOSaufOnVi2bBm+973v4Z577sGWLVvMPqeenmDiOkWl2SR0/9JTTz1lnBH6BnStrKxEUlJShMKtHa/9+g4kjk2DRvxPSxuLUTP/A6/ti3Eqsa69WCi/SDfXxXgcJ/hs7tm8BGkT1+KgRFw6YYnS2FWIq13Vvn2LfgYee+wx49ygK7P+oo9LWUiABCIn4AtxG/kNrEkCJDDyCPhztOqjLS1Hjx4N7JnTrBCaHeJEHq26n00DC+sfal2t0z/oF154oWlj69atyM09WdI7U02+dWHHmjQsLXagrLoeS797PnoOH8SLv5yJ7KwvUdNRgati5TiblIlHRMyOOW8Il7b8WE762og/vTcPtR0PYXY4NlEcu9pV7dt3RVXzkGrg6Z/97GfQzwYLCZDAAAnIL1wWEog5Afn4xnwMHMDACYhzgiVehpaswlkrV660ZFXOkj1y1lVXXWXJCpyl9pXHZFZqaqolYs90JJkkLNlb12+n3U3l5v6S2o7edT1uKw8Oq8ztO+9pssryc0xdOHMtV02zqe9pKLdy80ut8rJ8uZZjaTOH63daeU6Yus68Est9uNvUrS8vsHILSqyiPKe55sgtsRo83m67W2usghyHt31HrlVeK+13N1kl+QVWZZO3kruixHLKXHW+jpwCq6Y52G5eUalVlAsrp6S21zw89S4rJ89l+WcX+l77LPT3KWMvr231jtOVb+W73IF26l0F8r7eN9Bmy1WYZzkd3rHmFpZb5q7uBuk/zyopK7UkT45V8q6719ibqsuCY88tCjAJN4ZA5yc4ULuqfbXo50IeoZtj/ZwcO3bMHPMbCZDAwAjo7xf+xRwYO941yAT0w8hiLwLvv/++JZHwrdGjR3sFj/7CkS/ZB2U9+eSTRtQdOXKk30k37yyQ+/KtBq8OkvrdlsfjsTzdgRNy7rBV6pT2HflWpdttVRTlmr7Km7qtDnepr/8cq8RVabW2VFqSf8Jyiqhxu6utAnNfkRE47lKv+MstqrBqKr1ixmnEVpNVIPcgp8iqbXBbZXk6FxlTe60RPEW1h0XHuUw/+a5qq6mh1ioRoYacMktlnb9dR26hVeETlf6Jd9SWyH0lMgNvCb73WK4caSO31KpvarAqCp1Sz2HVSoO1JSLMimr8TfR67y7VejlWRW29VV9TboRaQaUIzY5ac6w2yC9yWfWfvRsYe0d9mRl7Xmml1dAgglGZoNBqltGHG0Og8xMcqF3HjBlj3XvvvZZ4LlviDHOCWjxFAiQwEAL6M8zHpkKBhQRIYPAJaFR83YguKy2m8eTkZKhHqfxhNxHz/Q4N/fX85YGXAedaTPL9turcuwlj56wL3CbiCjuvd2NlFVDesBGLLpFHmI4iFK57Hs+9Wo/vz9eqDlQersCiVKDuiaWoQyGa1/8bNKLY1N+VY+PkZaj5dC0yjx0Bcl0ouy9HkvABjxRtwoouoLPuVcmcDFQ+fR9mpwOzS9w4cPQlHJVzWsxD07GzUVFRg0U5VyGpqx3fcTiB54/Au+VM2nWW4n+fuwfHPcX0OdkGfG0D73tw5KA0Pk9aT56EnPXb4F7yOc6XgR3EeJmRJmj2lsSQ9+fNX4+dtQ58f3YqxL8DV4hSLf/Lp3joam/9/IomPJojj65lz5sWHfuHOzaJ3nPhsXsWmXmv31aN8rTr8Pq+u9EVZgzm5jDf1FFFH63LSqsJATJ9+vQwNXmaBEhgIATosDAQaryHBEjgpAQ036XmvdTQEfoHPDs7G7/61a+gqZT0nMYCU4eGvk4MJ2p0wkWLgaoaNPv8IVJm3I2mhia0Nrshq2Gm9HSLwpKybEqyyX05atQkbNATx7r1u5TxOCegjsbJ+w2YpPkB5StZhJuWT/7eBa3tmDvdCBg9l5g0Xl+kqAAtwHQRbqYkOfDQc+vhMKrNeyohOREtbxZgrLSpeZIXr6uSbkdDu+2W2x3ZVx4v3Ly39voe/I86BbdtKYNzy0+QNVHntQAvvN+GwOBC7mr7sirwLgGd2L5iotRPxNi0LGyoAzKTvMJNJCQyM9MCdb0H/8D7z9fBme0INp18DjLlYuvRMyMeQ2ijale174MPPggKt1AyPCaBwSFA8TY4HNkKCZCAj8CBAwegq2q68qbHms3h1VdfxU9/+lMTN05DRGjJzMw0UfR9t4V9mXjZXLm2Ba/8RZaRtCSl4sJLLkT6xEQc8p7xqiNdXWv2oLujAx5PB9zVO/HAzdP8NQKv3cc+FyVVglYRkR0dHngON6FyZzVun+lbE/PqQFPfL/2MqsNHOOR3qO1qxBMPPoHGkLp1z67FyuJpqG5qhTzQRfPOfOCQd9Ux0HnYA69w1MsdbV/qQqGUThw551r8QcZ5uLkela5l2LhyMf7H79ma5FejndDFyfFGSHbiueVLUXNTBZoPe2QvggdlTkBFW6BIe71LEjLmiT5u+0fwdM/XsroHTBzzzcnHELyj15FmR1D7spAACUSHAMVbdLiyVRIYsQSmTZuG3/zmNybW10UXXRSWw9VXX208D8NW8F1IuiQbpU5g9bxb8eyeRnR1daHt0z14cEmWSDpA19FSpl2DHHkYWrL1PfTII7uO/9uKmddl442WoFDxy6gLvrtInp0+jT/Vt0scOuC95/4di7MfDgpBX7+hLymZEtcOO/Db3+8V39dOvL3lLqzc8Ndeq2Dd+shVVvgmZ6Sjp2UPfpFdrG99j01DW+tzbIa4DhV729DTvgdrF8sDWlmxA77Cr7OmYPnTbqRmTMd1S+Z7NZ3v9rqnX0JjZw8+3fU4VsrqmnIQFWu+Z047HxNTE9C4awt+UiWnuvyzN5f7fEvCrBtFaG64Fzv2qUDuxI6H8oRmPhZN//qkY+jTUOCtepSqfVlIgASiRGAgm+V4DwkMNgH5eA92k2xvmBN4/fXXzWb2iIbZUS8OAD5PT/ms6OfFWVBmlRflWF6HAstqrfE7Jniv55ZUimuD7NM3Dgs5ltvrECpnPNZOuU/b8H6Jx6rPi9Nd4rQcRUFv0ND3TTuLQu4Rb83KJmnKbUmwE6tEHBY8DRUBb01tN78gz9R3iMNDaDvHz7fZKlXnBt94nE45dpYa71P1fvWf11eHeKWqY0NHr76cVq5DePi8WGuNV62vPfGKLcx3ShtOq6YtOFYzhpCxq8OHKz+Ur9Mqd3tdKMKN4fh5BM+ok4Lal4UESGDwCejvglHarBywkEBMCTDDQkzxx6TzgWRY6Gpvw2FPNxLHpSE9JWTDmX8GXZ1okceFyeNSkZoS3D3mvxz6atqSx6BpqelIOnnV4G3SfltHN8bKPr4T3tMj11ul/7R06PB6ZO9XT1LKiesGW5UjXzaE5OPHrVklWo+I20PiOGSkh7g7aF/tJx6Lzq2jJwGp6amyj61H9hZ2IUmWGfubZmdbi/AVJhJcORRf2DH0moP3TSQZFk5wG0+RAAlESED/XlK8RQiL1aJLgOItunyHa+vMbTpcLTOwcQ0kt+nAeuJdJDByCejfS+55G7n258xJIOYEbr75ZkgsODzwwAMxHwsHcPoE1I5qT7UrCwmQQPQI9LeKHr2e2TIJkAAJCAHNfTp37lxcccUVuPXWW8kkTgls27YNL7zwgslzG6dT4LBJIG4IULzFjak4UBKwJ4EJEyZAH5/ecMMN0ByqCxYssOdEbTyrt956C6tWrcIf//hHqD1ZSIAEokuAj02jy5etkwAJREDg8ssvN6s2y5YtM4F8I7iFVYYJAQ28rHbTVTe1IwsJkED0CVC8RZ8xeyABEoiAwMKFC7F161bcfvvtJjtDBLewSowJaBYNtZfaTe3HQgIkMDQE6G06NJzZSz8E6G3aD6ARdHnfvn245ZZbcM0116C4uNikWRpB04+LqWoGjfz8fOzevRvbt29nCqy4sBoHaRcC9Da1iyU5DxKwEQHNhfnee++ZGeljuDfeeMNGs4v/qag9/I9H1U7MXRr/NuUM4o8AV97iz2a2HDFX3mxp1tOelETpNxvh58yZg6KiIpws3dZpd8YGTkrgk08+wbp161BbW4vHH38c119//Unr8yIJkEB0CHDlLTpc2SoJkMAgEVCB8OGHH5qVniuvvBJr1qxBa2vrILXOZiIhoLyVu/KfNWuWsQeFWyTkWIcEokeADgvRY8uWSYAEBoFAUlIS7r//fiMa9D/OGTNmYO3atWhubh6E1tlEOALKVzkrb+WuIrqgoABqDxYSIIHYEqB4iy1/9k4CJBAhgYkTJ2LTpk1wu90444wzMHPmTKxYsQIffPBBhC2wWiQElKdyVb7KWXkrd+XPQgIkMDwIULwNDztwFCRAAhESyJCk6Q8//DAaGhpw6aWXIjs72wT2dblc6OrqirAVVgsloNyUnwZIVp7KVfkqZ+XNQgIkMLwI0GFheNljxI6GDgsj1vSnPfFjx46hoqICzzzzDN59913ceOONuO2220zGhuTk5NNu364NeDwekxHhxRdfxCuvvGL2tN15551YunQpRo8ebddpc14kEPcE9O8lxVvcm9EeE6B4s4cdYz2LlpYWk2pL82xqGIv58+cbEacb7LOysmI9vJj3X19fD/Xg1TRW77zzjskpq/lkNZE8V9hibh4OgAQiIkDxFhEmVhoKAhRvQ0F5ZPXR3t6OXbt2GbGiguWbb77BtddeG/hyOBxmT5ddqfzrX/9CXV0d3n777cDXmWeeaUJ8qJhdtGgRUlNT7Tp9zosEbEuA4s22po2/iVG8xZ/N4m3EBw8eNCJGswKooPniiy8we/Zs87hQw2DMnTsXF1xwQbxNKzDezz77zKw26qNj/dq7dy++/e1vG7Gq2SpUuGZmZgbq84AESCA+CVC8xafdbDlqijdbmnVYT+rQoUO9xI4+ZtXVKt2sP3XqVPM1bdo08zplypRhkaZL01KpI8HHH3+MAwcOmFc93r9/v1lFVAGqQtQvRsePHz+sbcDBkQAJnDoBirdTZ8Y7okSA4i1KYNnsKRH46quvAqLIL470tbGx0Yi3SZMmmb1h+qqrWikpKeb8WWedZV7HjBkTeN/3WOOjqVfn0aNHoSJMv8Id67XOzk6zOqjx1nQvn75q/Ysvvhh+URn6eu65557SXFmZBEggPglQvMWn3Ww5aoo3W5rVNpOyLAttbW1GQPnFlAo9FVh9RVi49yrcVMCFijoVfeHeqzBUQaaOBCoW9Ss9Pd0EzLUNWE6EBEjglAlQvJ0yMt4QLQIUb9Eiy3ZJgARIgATsRED/XjJIr50syrmQAAmQAAmQAAnYngDFm+1NzAmSAAmQAAmQAAnYiQDFm52sybmQAAmQAAmQAAnYngDFm+1NzAmSAAmQAAmQAAnYiQDFm52sybmQAAmQAAmQAAnYngDFm+1NzAmSAAmQAAmQAAnYiQDFm52sybmQAAmQAAmQAAnYngDFm+1NzAmSAAmQAAmQAAnYiQDFm52sybmQAAmQAAmQAAnYngDFm+1NzAmSAAmQAAmQAAnYiQDFm52sybmQAAmQAAmQAAnYngDFm+1NzAmSAAmQAAmQAAnYiQDFm52sybmQAAmQAAmQAAnYngDFm+1NzAmSAAmQAAmQAAnYiQDFm52sybmQAAmQAAmQAAnYngDFm+1NzAmSAAmQAAmQAAnYiQDFm52sybmQAAmQAAmQAAnYngDFm+1NzAmSAAmQAAmQAAnYiQDFm52sybmQAAmQAAmQAAnYngDFm+1NzAmSAAmQAAmQAAnYiQDFm52sybmQAAmQAAmQAAnYngDFm+1NzAmSAAmQAAmQAAnYiQDFm52sybmQAAmQAAmQAAnYnkCC7WfICcYNgVGjRsXNWDlQEiABEiABEogVgf8H54XR0xTsWg4AAAAASUVORK5CYII=;" vertex="1" parent="1">
          <mxGeometry x="110" y="100" width="623" height="528" as="geometry" />
        </mxCell>
      </root>
    </mxGraphModel>
  </diagram>
</mxfile>
